<svg width="20" height="34" viewBox="0 0 20 34" fill="none" xmlns="http://www.w3.org/2000/svg">
<rect width="20" height="34" fill="#1E1E1E"/>
<path fill-rule="evenodd" clip-rule="evenodd" d="M2.20247 6.85091H17.5257V22.8659H2.20247V6.85091ZM9.43522 9.14193H10.8574V11.8895C10.8574 12.1606 10.8131 12.418 10.7301 12.6587C10.6444 12.9022 10.5116 13.1125 10.3317 13.2951C10.1491 13.4777 9.96094 13.6022 9.76172 13.6769C9.48503 13.7793 9.15299 13.8291 8.76562 13.8291C8.5415 13.8291 8.29801 13.8125 8.03239 13.7821C7.76676 13.7516 7.54541 13.688 7.36833 13.5967C7.19124 13.5026 7.02799 13.3726 6.88135 13.1982C6.73193 13.0267 6.63232 12.8496 6.57699 12.667C6.48844 12.3737 6.44417 12.1136 6.44417 11.8867V9.13916H7.86637V11.9504C7.86637 12.2021 7.93555 12.3986 8.07389 12.5397C8.21224 12.6808 8.40592 12.7528 8.65218 12.7528C8.89567 12.7528 9.08659 12.6836 9.2277 12.5425C9.36605 12.4041 9.43522 12.2077 9.43522 11.9504V9.14193ZM11.8563 9.14193H13.2868V13.7516H11.8563V9.14193ZM3.44759 0H16.2806C17.2297 0 18.0957 0.38737 18.7183 1.00993C19.3408 1.63249 19.7282 2.49854 19.7282 3.44759V30.5524C19.7282 31.5015 19.3408 32.3675 18.7183 32.9901C18.0957 33.6126 17.2297 34 16.2806 34H3.44759C2.49853 34 1.63249 33.6126 1.00993 32.9901C0.38737 32.3675 0 31.5015 0 30.5524V3.44759C0 2.49854 0.38737 1.63249 1.00993 1.00993C1.63249 0.38737 2.49853 0 3.44759 0ZM2.20247 25.7407H8.68262V27.8547H10.5392V25.738H17.5285V27.8547H18.9036V4.93066H0.827311V27.8574H2.20247V25.7407ZM8.00749 31.2663C7.78337 31.2663 7.58968 31.0837 7.58968 30.8485C7.58968 30.6243 7.7723 30.4307 8.00749 30.4307H11.8009C12.0251 30.4307 12.2187 30.6133 12.2187 30.8485C12.2187 31.0726 12.0361 31.2663 11.8009 31.2663H8.00749ZM9.86409 1.78743C10.2321 1.78743 10.5282 2.0835 10.5282 2.4515C10.5282 2.8195 10.2321 3.11556 9.86409 3.11556C9.49609 3.11556 9.20003 2.8195 9.20003 2.4515C9.20003 2.0835 9.49609 1.78743 9.86409 1.78743ZM18.9036 28.682H0.827311V30.5413C0.827311 31.2663 1.12337 31.9193 1.60205 32.3869C2.08073 32.8656 2.73372 33.1616 3.44759 33.1616H16.2806C17.0055 33.1616 17.6585 32.8656 18.1261 32.3869C18.6048 31.9082 18.9009 31.2552 18.9009 30.5413V28.682H18.9036ZM0.827311 4.09229H18.9036V3.44759C18.9036 2.72266 18.6076 2.06966 18.1289 1.60205C17.6502 1.12337 16.9972 0.827311 16.2834 0.827311H3.44759C2.72266 0.827311 2.06966 1.12337 1.60205 1.60205C1.12337 2.08073 0.827311 2.73372 0.827311 3.44759V4.09229ZM8.05452 15.8656H9.43522V18.5329C9.43522 18.7957 9.39372 19.0475 9.31071 19.2799C9.2277 19.5151 9.10042 19.7199 8.92334 19.897C8.74626 20.0741 8.56364 20.1958 8.36995 20.2677C8.10156 20.3674 7.77783 20.4172 7.40153 20.4172C7.18294 20.4172 6.94499 20.4006 6.68766 20.3701C6.43034 20.3397 6.21452 20.2788 6.04297 20.1875C5.86865 20.0962 5.71094 19.9689 5.56982 19.8029C5.42594 19.6369 5.3291 19.4626 5.27376 19.2882C5.18799 19.0033 5.14648 18.7515 5.14648 18.5329V15.8656H6.52718V18.5965C6.52718 18.84 6.59635 19.0309 6.72917 19.1665C6.86475 19.3049 7.0529 19.374 7.29085 19.374C7.52604 19.374 7.71419 19.3049 7.84977 19.172C7.98258 19.0392 8.05176 18.8455 8.05176 18.5965V15.8656H8.05452ZM10.0412 15.8656H11.5658L12.3599 17.2435L13.1291 15.8656H14.637L13.2453 18.0348L14.7671 20.3424H13.2093L12.3322 18.9036L11.4468 20.3424H9.9056L11.4495 18.0099L10.0412 15.8656Z" fill="black"/>
</svg>
