<svg width="59" height="80" viewBox="0 0 59 80" fill="none" xmlns="http://www.w3.org/2000/svg">
<path d="M36.2566 0.00128631C36.1821 0.0148647 36.1076 0.0352297 36.0398 0.0555964H6.06987C2.75041 0.0555964 0 2.76431 0 6.08401V72.8854C0 76.8025 3.23817 80 7.15377 80H51.8107C55.7263 80 58.9644 76.8025 58.9644 72.8854V22.9744C59.0119 22.7436 59.0119 22.4992 58.9644 22.2684V21.7796C58.978 21.318 58.8018 20.8631 58.4767 20.5305L38.5328 0.544387C38.2009 0.218527 37.747 0.0420197 37.2863 0.0555964H36.7444C36.5886 0.0148647 36.4192 -0.00550201 36.2566 0.00128631ZM6.06987 3.53144H34.685V18.0322C34.685 21.5284 37.537 24.3865 41.0258 24.3865H55.4959V72.8854C55.4959 74.9152 53.8565 76.5242 51.8107 76.5242H7.15377C5.1079 76.5242 3.4685 74.9152 3.4685 72.8854V6.08401C3.4685 4.65158 4.61337 3.53144 6.06987 3.53144ZM38.1535 5.16074L53.8701 20.9107H41.0258C39.4067 20.9107 38.1535 19.6547 38.1535 18.0322V5.16074ZM15.6082 40.0278C14.653 40.0278 13.874 40.8085 13.874 41.7657C13.874 42.7229 14.653 43.5036 15.6082 43.5036C16.5634 43.5036 17.3425 42.7229 17.3425 41.7657C17.3425 40.8085 16.5634 40.0278 15.6082 40.0278ZM22.5452 40.0278V43.5036H43.3562V40.0278H22.5452ZM15.6082 48.7174C14.653 48.7174 13.874 49.4981 13.874 50.4553C13.874 51.4125 14.653 52.1933 15.6082 52.1933C16.5634 52.1933 17.3425 51.4125 17.3425 50.4553C17.3425 49.4981 16.5634 48.7174 15.6082 48.7174ZM22.5452 48.7174V52.1933H43.3562V48.7174H22.5452ZM15.6082 57.407C14.653 57.407 13.874 58.1877 13.874 59.1449C13.874 60.1022 14.653 60.8829 15.6082 60.8829C16.5634 60.8829 17.3425 60.1022 17.3425 59.1449C17.3425 58.1877 16.5634 57.407 15.6082 57.407ZM22.5452 57.407V60.8829H43.3562V57.407H22.5452Z" fill="black"/>
<mask id="path-2-outside-1_0_1" maskUnits="userSpaceOnUse" x="8" y="27" width="45" height="46" fill="black">
<rect fill="white" x="8" y="27" width="45" height="46"/>
<path d="M11.896 28.544H12.472C14.1787 28.544 15.032 29.376 15.032 31.04V69.568C15.032 71.1893 14.1787 72 12.472 72H11.896C10.2747 72 9.464 71.1893 9.464 69.568V31.04C9.464 29.376 10.2747 28.544 11.896 28.544ZM22.204 28.544H49.468C51.0893 28.544 51.9 29.3547 51.9 30.976C51.9 32.5547 51.0893 33.344 49.468 33.344H38.588V69.568C38.588 71.1893 37.756 72 36.092 72H35.516C33.852 72 33.02 71.1893 33.02 69.568V33.344H22.204C20.5827 33.344 19.772 32.5547 19.772 30.976C19.772 29.3547 20.5827 28.544 22.204 28.544Z"/>
</mask>
<path d="M11.896 29.544H12.472V27.544H11.896V29.544ZM12.472 29.544C13.1775 29.544 13.5217 29.7161 13.6939 29.884C13.8614 30.0473 14.032 30.3687 14.032 31.04H16.032C16.032 30.0473 15.7759 29.1207 15.0901 28.452C14.409 27.7879 13.4732 27.544 12.472 27.544V29.544ZM14.032 31.04V69.568H16.032V31.04H14.032ZM14.032 69.568C14.032 70.2111 13.8653 70.513 13.7033 70.667C13.5316 70.8301 13.1836 71 12.472 71V73C13.467 73 14.3991 72.7646 15.0807 72.117C15.772 71.4603 16.032 70.5463 16.032 69.568H14.032ZM12.472 71H11.896V73H12.472V71ZM11.896 71C11.2395 71 10.9308 70.8365 10.7791 70.6849C10.6275 70.5332 10.464 70.2245 10.464 69.568H8.464C8.464 70.5328 8.70588 71.4401 9.36489 72.0991C10.0239 72.7581 10.9312 73 11.896 73V71ZM10.464 69.568V31.04H8.464V69.568H10.464ZM10.464 31.04C10.464 30.3557 10.6308 30.0274 10.7882 29.8659C10.9409 29.7091 11.2462 29.544 11.896 29.544V27.544C10.9245 27.544 10.0137 27.7948 9.35577 28.4701C8.70249 29.1406 8.464 30.0603 8.464 31.04H10.464ZM38.588 33.344V32.344H37.588V33.344H38.588ZM33.02 33.344H34.02V32.344H33.02V33.344ZM22.204 29.544H49.468V27.544H22.204V29.544ZM49.468 29.544C50.1245 29.544 50.4332 29.7075 50.5849 29.8591C50.7365 30.0108 50.9 30.3195 50.9 30.976H52.9C52.9 30.0112 52.6581 29.1039 51.9991 28.4449C51.3401 27.7859 50.4328 27.544 49.468 27.544V29.544ZM50.9 30.976C50.9 31.6043 50.7403 31.8935 50.5944 32.0355C50.4435 32.1824 50.1311 32.344 49.468 32.344V34.344C50.4262 34.344 51.3298 34.1109 51.9896 33.4685C52.6544 32.8212 52.9 31.9263 52.9 30.976H50.9ZM49.468 32.344H38.588V34.344H49.468V32.344ZM37.588 33.344V69.568H39.588V33.344H37.588ZM37.588 69.568C37.588 70.2178 37.4229 70.5231 37.2661 70.6758C37.1046 70.8332 36.7763 71 36.092 71V73C37.0717 73 37.9914 72.7615 38.6619 72.1082C39.3372 71.4503 39.588 70.5395 39.588 69.568H37.588ZM36.092 71H35.516V73H36.092V71ZM35.516 71C34.8317 71 34.5034 70.8332 34.3419 70.6758C34.1851 70.5231 34.02 70.2178 34.02 69.568H32.02C32.02 70.5395 32.2709 71.4503 32.9461 72.1082C33.6166 72.7615 34.5363 73 35.516 73V71ZM34.02 69.568V33.344H32.02V69.568H34.02ZM33.02 32.344H22.204V34.344H33.02V32.344ZM22.204 32.344C21.5409 32.344 21.2285 32.1824 21.0776 32.0355C20.9317 31.8935 20.772 31.6043 20.772 30.976H18.772C18.772 31.9263 19.0176 32.8212 19.6824 33.4685C20.3422 34.1109 21.2458 34.344 22.204 34.344V32.344ZM20.772 30.976C20.772 30.3195 20.9355 30.0108 21.0871 29.8591C21.2388 29.7075 21.5475 29.544 22.204 29.544V27.544C21.2392 27.544 20.3319 27.7859 19.6729 28.4449C19.0139 29.1039 18.772 30.0112 18.772 30.976H20.772Z" fill="black" mask="url(#path-2-outside-1_0_1)"/>
</svg>
