<svg width="149" height="213" viewBox="0 0 149 213" fill="none" xmlns="http://www.w3.org/2000/svg">
<rect width="149" height="213" fill="#1E1E1E"/>
<path fill-rule="evenodd" clipRule="evenodd" d="M133 180C141.822 180 149 187.178 149 196C149 204.822 141.822 212 133 212C124.178 212 117 204.822 117 196C117 187.178 124.178 180 133 180ZM133 183.2C125.917 183.2 120.2 188.917 120.2 196C120.2 203.083 125.917 208.8 133 208.8C140.083 208.8 145.8 203.083 145.8 196C145.8 188.917 140.083 183.2 133 183.2ZM133.069 188.659C134.279 190.232 134.687 192.168 134.299 193.582C134.251 193.814 135.957 195.628 139.417 199.023C140.548 200.154 140.548 201.285 139.417 202.417C138.352 203.481 137.287 203.544 136.222 202.605L130.607 197.274C129.193 197.662 127.258 197.254 125.684 196.043C124.53 194.526 124.132 192.542 124.453 191.12L126.915 193.582L129.376 192.351L130.607 189.889L128.145 187.428C129.567 187.106 131.551 187.504 133.069 188.659Z" fill="black"/>
<path d="M15.9775 0.00056276C15.9447 0.0065033 15.9118 0.015413 15.882 0.0243234H2.67486C1.21205 0.0243234 0 1.20939 0 2.66176V31.8874C0 33.6011 1.42699 35 3.15251 35H22.8318C24.5573 35 25.9843 33.6011 25.9843 31.8874V10.0513C26.0052 9.95034 26.0052 9.84341 25.9843 9.74243V9.52858C25.9903 9.32662 25.9127 9.12762 25.7694 8.98209L16.9806 0.238169C16.8343 0.0956054 16.6343 0.0183836 16.4313 0.0243234H16.1924C16.1238 0.0065033 16.0491 -0.00240713 15.9775 0.00056276ZM2.67486 1.545H15.2849V7.8891C15.2849 9.41869 16.5417 10.6691 18.0792 10.6691H24.4558V31.8874C24.4558 32.7754 23.7334 33.4793 22.8318 33.4793H3.15251C2.25094 33.4793 1.52849 32.7754 1.52849 31.8874V2.66176C1.52849 2.03507 2.03301 1.545 2.67486 1.545ZM16.8134 2.25782L23.7394 9.14841H18.0792C17.3657 9.14841 16.8134 8.59895 16.8134 7.8891V2.25782ZM6.8782 17.5122C6.45727 17.5122 6.11396 17.8537 6.11396 18.2725C6.11396 18.6913 6.45727 19.0328 6.8782 19.0328C7.29914 19.0328 7.64245 18.6913 7.64245 18.2725C7.64245 17.8537 7.29914 17.5122 6.8782 17.5122ZM9.93518 17.5122V19.0328H19.1061V17.5122H9.93518ZM6.8782 21.3139C6.45727 21.3139 6.11396 21.6554 6.11396 22.0742C6.11396 22.493 6.45727 22.8345 6.8782 22.8345C7.29914 22.8345 7.64245 22.493 7.64245 22.0742C7.64245 21.6554 7.29914 21.3139 6.8782 21.3139ZM9.93518 21.3139V22.8345H19.1061V21.3139H9.93518ZM6.8782 25.1156C6.45727 25.1156 6.11396 25.4571 6.11396 25.8759C6.11396 26.2947 6.45727 26.6363 6.8782 26.6363C7.29914 26.6363 7.64245 26.2947 7.64245 25.8759C7.64245 25.4571 7.29914 25.1156 6.8782 25.1156ZM9.93518 25.1156V26.6363H19.1061V25.1156H9.93518Z" fill="black"/>
<path d="M85.9095 184.261C85.1915 181.609 79.8477 179 70.5 179C61.1523 179 55.8079 181.609 55.0905 184.261C55.0384 184.352 55 184.451 55 184.564V184.873V191.982V192.291V192.6V199.4V199.709V200.018V207.436C55 207.537 55.0267 207.631 55.0725 207.715C55.8048 210.741 62.3557 213 70.5 213C78.6257 213 85.1661 210.75 85.9225 207.736C85.9721 207.647 86 207.545 86 207.436V200.018V199.709V199.4V192.6V192.291V191.982V184.873V184.564C86 184.451 85.9616 184.352 85.9095 184.261ZM84.711 200.009C84.6937 200.084 84.6695 200.158 84.6391 200.233C84.6143 200.295 84.5839 200.356 84.5504 200.417C84.5089 200.493 84.4624 200.569 84.4072 200.645C84.3663 200.703 84.3198 200.759 84.2714 200.816C84.2026 200.897 84.1295 200.978 84.0464 201.059C83.9962 201.107 83.941 201.156 83.8852 201.204C83.7835 201.293 83.6775 201.381 83.5591 201.468C83.5082 201.506 83.4537 201.542 83.3997 201.579C83.2596 201.676 83.1133 201.771 82.9527 201.865C82.9105 201.891 82.8653 201.915 82.8213 201.939C82.6365 202.043 82.4437 202.147 82.2354 202.247C82.2087 202.26 82.1808 202.272 82.1535 202.284C81.921 202.394 81.678 202.501 81.4182 202.605C81.4108 202.608 81.4033 202.611 81.3959 202.614C79.9879 203.175 78.1868 203.646 76.0881 203.955C76.0775 203.957 76.067 203.958 76.0564 203.96C75.6485 204.02 75.23 204.073 74.8003 204.12C74.7303 204.127 74.6565 204.132 74.5858 204.14C74.2107 204.179 73.8313 204.214 73.4407 204.243C73.2621 204.256 73.0749 204.262 72.8932 204.273C72.5993 204.29 72.3085 204.31 72.0072 204.32C71.5149 204.336 71.0127 204.345 70.5 204.345C69.9873 204.345 69.4851 204.336 68.9922 204.318C68.6908 204.308 68.4001 204.288 68.1062 204.271C67.9245 204.261 67.7373 204.254 67.5587 204.241C67.1681 204.213 66.7887 204.177 66.4136 204.138C66.3429 204.13 66.2691 204.125 66.1991 204.118C65.7694 204.071 65.3509 204.017 64.9429 203.958C64.9324 203.957 64.9219 203.955 64.9113 203.954C62.8126 203.644 61.0115 203.173 59.6035 202.612C59.5961 202.61 59.5886 202.607 59.5812 202.603C59.3214 202.5 59.0777 202.392 58.8459 202.283C58.8192 202.27 58.7907 202.257 58.764 202.245C58.5557 202.145 58.3629 202.042 58.1781 201.938C58.1347 201.913 58.0888 201.889 58.0467 201.863C57.8861 201.769 57.7398 201.674 57.5997 201.577C57.5463 201.54 57.4912 201.504 57.4403 201.466C57.3219 201.379 57.2159 201.291 57.1142 201.203C57.059 201.154 57.0032 201.106 56.953 201.057C56.8699 200.976 56.7968 200.896 56.7279 200.814C56.6796 200.758 56.6331 200.701 56.5922 200.643C56.5376 200.567 56.4911 200.491 56.4489 200.415C56.4155 200.354 56.3857 200.293 56.3603 200.231C56.3299 200.157 56.3057 200.082 56.2884 200.007C56.2654 199.909 56.24 199.809 56.24 199.709C56.24 199.639 56.2481 199.569 56.2592 199.5C56.2747 199.407 56.266 199.313 56.24 199.225V194.636C56.2574 194.652 56.2791 194.667 56.297 194.683C56.4322 194.802 56.5698 194.92 56.7248 195.034C59.0604 196.795 63.7308 198.164 70.5 198.164C77.2406 198.164 81.8993 196.806 84.2448 195.055C84.432 194.919 84.6007 194.779 84.7594 194.636L84.76 194.636V199.225C84.734 199.313 84.7253 199.407 84.7408 199.5C84.7526 199.569 84.76 199.639 84.76 199.709C84.76 199.809 84.7346 199.909 84.711 200.009ZM84.76 187.217V191.807C84.734 191.895 84.7253 191.989 84.7408 192.082C84.7526 192.151 84.76 192.221 84.76 192.291C84.76 192.39 84.7346 192.491 84.711 192.591C84.6937 192.666 84.6695 192.74 84.6391 192.815C84.6143 192.876 84.5839 192.938 84.5504 192.999C84.5089 193.075 84.4624 193.151 84.4072 193.227C84.3663 193.284 84.3198 193.341 84.2714 193.398C84.2026 193.479 84.1295 193.56 84.0464 193.64C83.9962 193.689 83.941 193.737 83.8852 193.786C83.7835 193.875 83.6775 193.962 83.5591 194.05C83.5082 194.087 83.4537 194.124 83.3997 194.161C83.2596 194.257 83.1133 194.353 82.9527 194.447C82.9105 194.472 82.8653 194.497 82.8213 194.521C82.6365 194.625 82.4437 194.728 82.2354 194.829C82.2087 194.842 82.1808 194.854 82.1535 194.866C81.921 194.976 81.678 195.083 81.4182 195.187C81.4108 195.19 81.4033 195.193 81.3959 195.196C79.9879 195.756 78.1868 196.228 76.0881 196.537C76.0775 196.538 76.067 196.54 76.0564 196.542C75.6485 196.601 75.23 196.655 74.8003 196.702C74.7303 196.709 74.6565 196.714 74.5858 196.721C74.2107 196.76 73.8313 196.796 73.4407 196.825C73.2621 196.838 73.0749 196.844 72.8932 196.855C72.5993 196.872 72.3085 196.891 72.0072 196.902C71.5149 196.917 71.0127 196.927 70.5 196.927C69.9873 196.927 69.4851 196.917 68.9922 196.9C68.6908 196.89 68.4001 196.87 68.1062 196.853C67.9245 196.843 67.7373 196.836 67.5587 196.823C67.1681 196.794 66.7887 196.759 66.4136 196.72C66.3429 196.712 66.2691 196.707 66.1991 196.7C65.7694 196.653 65.3509 196.599 64.9429 196.54C64.9324 196.538 64.9219 196.537 64.9113 196.535C62.8126 196.226 61.0115 195.755 59.6035 195.194C59.5961 195.191 59.5886 195.188 59.5812 195.185C59.3214 195.081 59.0777 194.974 58.8459 194.864C58.8192 194.851 58.7907 194.839 58.764 194.827C58.5557 194.727 58.3629 194.624 58.1781 194.519C58.1347 194.495 58.0888 194.471 58.0467 194.445C57.8861 194.351 57.7398 194.255 57.5997 194.159C57.5463 194.122 57.4912 194.085 57.4403 194.048C57.3219 193.961 57.2159 193.873 57.1142 193.784C57.059 193.736 57.0032 193.688 56.953 193.639C56.8699 193.558 56.7968 193.478 56.7279 193.396C56.6796 193.339 56.6331 193.282 56.5922 193.225C56.5376 193.149 56.4911 193.073 56.4489 192.997C56.4155 192.936 56.3857 192.874 56.3603 192.813C56.3299 192.738 56.3057 192.664 56.2884 192.589C56.2654 192.491 56.24 192.39 56.24 192.291C56.24 192.221 56.2481 192.151 56.2592 192.082C56.2747 191.989 56.266 191.895 56.24 191.807V187.217C56.3144 187.285 56.3993 187.351 56.4799 187.418C56.5246 187.455 56.5661 187.492 56.6132 187.529C56.7992 187.675 57.0001 187.819 57.2177 187.959C57.263 187.988 57.3138 188.017 57.361 188.046C57.5432 188.159 57.7361 188.27 57.9388 188.378C58.0138 188.419 58.0888 188.458 58.1663 188.498C58.3926 188.613 58.6301 188.725 58.88 188.833C58.9209 188.851 58.9581 188.869 58.9996 188.887C59.2904 189.01 59.5992 189.127 59.9203 189.241C60.009 189.272 60.102 189.302 60.1931 189.333C60.4486 189.419 60.7127 189.501 60.9861 189.581C61.0847 189.609 61.1814 189.639 61.2825 189.666C61.6452 189.766 62.0196 189.861 62.4127 189.949C62.4667 189.962 62.5249 189.971 62.5795 189.983C62.9261 190.059 63.2857 190.129 63.6552 190.194C63.7804 190.216 63.9075 190.237 64.0353 190.258C64.3868 190.316 64.7489 190.368 65.1203 190.417C65.2157 190.429 65.3069 190.443 65.4036 190.455C65.8649 190.511 66.3423 190.558 66.8327 190.599C66.9536 190.609 67.0795 190.616 67.2022 190.625C67.5947 190.653 67.9958 190.677 68.4063 190.695C68.5557 190.702 68.7045 190.709 68.857 190.715C69.3914 190.732 69.9358 190.745 70.5 190.745C71.0642 190.745 71.6086 190.732 72.143 190.715C72.2949 190.709 72.4437 190.702 72.5937 190.695C73.0042 190.677 73.4053 190.653 73.7978 190.625C73.9205 190.616 74.0458 190.609 74.1673 190.599C74.6577 190.559 75.1351 190.511 75.5964 190.455C75.6931 190.443 75.7843 190.429 75.8797 190.417C76.2511 190.368 76.6126 190.316 76.9647 190.258C77.0925 190.237 77.2196 190.216 77.3448 190.194C77.7143 190.129 78.0739 190.059 78.4205 189.983C78.4751 189.971 78.5333 189.961 78.5873 189.949C78.9804 189.861 79.3548 189.766 79.7175 189.666C79.8186 189.638 79.9153 189.609 80.0139 189.581C80.2873 189.501 80.5514 189.419 80.8069 189.333C80.898 189.302 80.991 189.272 81.0797 189.241C81.4008 189.127 81.7102 189.01 82.0004 188.887C82.0419 188.869 82.0791 188.851 82.12 188.833C82.3699 188.724 82.6074 188.613 82.8337 188.498C82.9112 188.458 82.9868 188.419 83.0612 188.378C83.2639 188.27 83.4568 188.16 83.639 188.046C83.6862 188.017 83.737 187.988 83.7823 187.959C83.9999 187.819 84.2008 187.676 84.3868 187.529C84.4333 187.492 84.4748 187.455 84.5201 187.418C84.6007 187.351 84.6856 187.285 84.76 187.217ZM70.5 180.236C78.9041 180.236 84.76 182.679 84.76 184.873C84.76 187.066 78.9041 189.509 70.5 189.509C62.0959 189.509 56.24 187.066 56.24 184.873C56.24 182.679 62.0959 180.236 70.5 180.236ZM84.76 207.253C84.7513 207.28 84.7451 207.308 84.7402 207.336C84.3886 209.475 78.5823 211.764 70.5 211.764C62.4177 211.764 56.6114 209.475 56.2598 207.336C56.2549 207.308 56.2481 207.281 56.24 207.255V202.054C56.2574 202.07 56.2791 202.085 56.297 202.101C56.4322 202.22 56.5698 202.338 56.7248 202.452C59.0604 204.213 63.7308 205.582 70.5 205.582C77.2406 205.582 81.8993 204.224 84.2448 202.474C84.432 202.338 84.6007 202.197 84.7594 202.054L84.76 202.054V207.253Z" fill="black"/>
</svg>
