<svg width="46" height="47" viewBox="0 0 46 47" fill="none" xmlns="http://www.w3.org/2000/svg">
<path d="M1 20.6875L1 40.375C1 41.8668 1.46357 43.2976 2.28873 44.3525C3.11389 45.4074 4.23305 46 5.4 46L40.6 46C41.767 46 42.8861 45.4074 43.7113 44.3525C44.5364 43.2976 45 41.8668 45 40.375L45 6.625C45 5.13316 44.5364 3.70242 43.7113 2.64753C42.8861 1.59263 41.767 1 40.6 1L16.4 1M1 20.6875L16.4 1M1 20.6875L16.4 20.6875L16.4 1" stroke="url(#paint0_linear_0_1)" stroke-width="2" stroke-linecap="round" stroke-linejoin="round"/>
<mask id="path-2-outside-1_0_1" maskUnits="userSpaceOnUse" x="10" y="8" width="33" height="32" fill="black">
<rect fill="white" x="10" y="8" width="33" height="32"/>
<path d="M13.56 10.84H13.92C14.9867 10.84 15.52 11.36 15.52 12.4V36.48C15.52 37.4933 14.9867 38 13.92 38H13.56C12.5467 38 12.04 37.4933 12.04 36.48V12.4C12.04 11.36 12.5467 10.84 13.56 10.84ZM22.4025 10.84H39.4425C40.4558 10.84 40.9625 11.3467 40.9625 12.36C40.9625 13.3467 40.4558 13.84 39.4425 13.84H32.6425V36.48C32.6425 37.4933 32.1225 38 31.0825 38H30.7225C29.6825 38 29.1625 37.4933 29.1625 36.48V13.84H22.4025C21.3892 13.84 20.8825 13.3467 20.8825 12.36C20.8825 11.3467 21.3892 10.84 22.4025 10.84Z"/>
</mask>
<path d="M13.56 12.84H13.92V8.84H13.56V12.84ZM13.92 12.84C14.1576 12.84 13.966 12.8982 13.7238 12.662C13.6093 12.5504 13.5514 12.4343 13.5275 12.3645C13.5072 12.3049 13.52 12.3051 13.52 12.4H17.52C17.52 11.5587 17.3012 10.5633 16.5162 9.798C15.7406 9.04182 14.7491 8.84 13.92 8.84V12.84ZM13.52 12.4V36.48H17.52V12.4H13.52ZM13.52 36.48C13.52 36.5635 13.5084 36.5525 13.5328 36.4828C13.561 36.4024 13.6246 36.282 13.7425 36.17C13.9858 35.9388 14.1699 36 13.92 36V40C14.7368 40 15.7208 39.8078 16.4975 39.07C17.2934 38.3139 17.52 37.3219 17.52 36.48H13.52ZM13.92 36H13.56V40H13.92V36ZM13.56 36C13.3616 36 13.5802 35.9518 13.8342 36.2058C14.0882 36.4598 14.04 36.6784 14.04 36.48H10.04C10.04 37.295 10.2451 38.2735 11.0058 39.0342C11.7665 39.7949 12.745 40 13.56 40V36ZM14.04 36.48V12.4H10.04V36.48H14.04ZM14.04 12.4C14.04 12.1754 14.095 12.3768 13.8525 12.6257C13.6005 12.8843 13.375 12.84 13.56 12.84V8.84C12.7317 8.84 11.7461 9.0557 10.9875 9.83427C10.2383 10.6032 10.04 11.5846 10.04 12.4H14.04ZM32.6425 13.84V11.84H30.6425V13.84H32.6425ZM29.1625 13.84H31.1625V11.84H29.1625V13.84ZM22.4025 12.84H39.4425V8.84H22.4025V12.84ZM39.4425 12.84C39.6409 12.84 39.4223 12.8882 39.1683 12.6342C38.9143 12.3802 38.9625 12.1616 38.9625 12.36H42.9625C42.9625 11.545 42.7574 10.5665 41.9967 9.80578C41.236 9.04509 40.2575 8.84 39.4425 8.84V12.84ZM38.9625 12.36C38.9625 12.5313 38.9217 12.2956 39.1873 12.0371C39.4429 11.7881 39.6541 11.84 39.4425 11.84V15.84C40.2443 15.84 41.2154 15.6452 41.9777 14.9029C42.7499 14.1511 42.9625 13.1754 42.9625 12.36H38.9625ZM39.4425 11.84H32.6425V15.84H39.4425V11.84ZM30.6425 13.84V36.48H34.6425V13.84H30.6425ZM30.6425 36.48C30.6425 36.665 30.5982 36.4395 30.8568 36.1875C31.1057 35.945 31.3071 36 31.0825 36V40C31.8979 40 32.8793 39.8017 33.6482 39.0525C34.4268 38.2939 34.6425 37.3083 34.6425 36.48H30.6425ZM31.0825 36H30.7225V40H31.0825V36ZM30.7225 36C30.4979 36 30.6993 35.945 30.9482 36.1875C31.2068 36.4395 31.1625 36.665 31.1625 36.48H27.1625C27.1625 37.3083 27.3782 38.2939 28.1568 39.0525C28.9257 39.8017 29.9071 40 30.7225 40V36ZM31.1625 36.48V13.84H27.1625V36.48H31.1625ZM29.1625 11.84H22.4025V15.84H29.1625V11.84ZM22.4025 11.84C22.1909 11.84 22.4021 11.7881 22.6577 12.0371C22.9233 12.2956 22.8825 12.5313 22.8825 12.36H18.8825C18.8825 13.1754 19.0951 14.1511 19.8673 14.9029C20.6296 15.6452 21.6007 15.84 22.4025 15.84V11.84ZM22.8825 12.36C22.8825 12.1616 22.9307 12.3802 22.6767 12.6342C22.4227 12.8882 22.2041 12.84 22.4025 12.84V8.84C21.5875 8.84 20.609 9.04509 19.8483 9.80579C19.0876 10.5665 18.8825 11.545 18.8825 12.36H22.8825Z" fill="url(#paint1_linear_0_1)" mask="url(#path-2-outside-1_0_1)"/>
<defs>
<linearGradient id="paint0_linear_0_1" x1="23" y1="46" x2="23" y2="1.00001" gradientUnits="userSpaceOnUse">
<stop stop-color="#FF7B00"/>
<stop offset="1" stop-color="#00FFD9"/>
</linearGradient>
<linearGradient id="paint1_linear_0_1" x1="25.5" y1="47" x2="25.5" y2="2" gradientUnits="userSpaceOnUse">
<stop stop-color="#FF7B00"/>
<stop offset="1" stop-color="#00FFD9"/>
</linearGradient>
</defs>
</svg>
