<svg width="301" height="296" viewBox="0 0 301 296" fill="none" xmlns="http://www.w3.org/2000/svg">
<rect width="301" height="296" fill="#1E1E1E"/>
<mask id="path-1-outside-1_0_1" maskUnits="userSpaceOnUse" x="80" y="4" width="202" height="47" fill="black">
<rect fill="white" x="80" y="4" width="202" height="47"/>
<path d="M83.96 5.544H105.912C107.533 5.544 108.344 6.35467 108.344 7.976C108.344 9.55466 107.533 10.344 105.912 10.344H87.032V24.04H103.416C104.995 24.04 105.784 24.8507 105.784 26.472C105.784 28.0507 104.995 28.84 103.416 28.84H87.032V46.632C87.032 48.2107 86.2 49 84.536 49H83.96C82.296 49 81.464 48.1893 81.464 46.568V7.976C81.464 6.35467 82.296 5.544 83.96 5.544ZM118.482 21.16C121.511 18.3013 125.223 16.872 129.618 16.872C134.013 16.872 137.725 18.3013 140.754 21.16C143.783 24.0187 145.298 28.0507 145.298 33.256C145.298 38.4613 143.783 42.472 140.754 45.288C137.725 48.104 134.013 49.512 129.618 49.512C125.223 49.512 121.511 48.104 118.482 45.288C115.453 42.472 113.938 38.4613 113.938 33.256C113.938 28.0507 115.453 24.0187 118.482 21.16ZM136.978 24.424C135.101 22.3333 132.647 21.288 129.618 21.288C126.589 21.288 124.114 22.3333 122.194 24.424C120.317 26.472 119.378 29.416 119.378 33.256C119.378 37.0533 120.317 39.9973 122.194 42.088C124.114 44.136 126.589 45.16 129.618 45.16C132.647 45.16 135.101 44.136 136.978 42.088C138.898 39.9973 139.858 37.0533 139.858 33.256C139.858 29.416 138.898 26.472 136.978 24.424ZM155.104 17.448H155.488C157.109 17.448 157.92 18.2373 157.92 19.816V23.272C158.645 21.6507 159.797 20.2 161.376 18.92C162.997 17.64 164.725 17 166.56 17C168.395 17 169.781 17.3627 170.72 18.088C171.701 18.8133 172.192 19.7093 172.192 20.776C172.192 21.8 171.744 22.6107 170.848 23.208C169.525 22.0987 168.117 21.544 166.624 21.544C163.979 21.544 161.888 22.632 160.352 24.808C158.816 26.9413 158.048 29.6293 158.048 32.872V46.568C158.048 47.4213 157.856 48.04 157.472 48.424C157.088 48.808 156.469 49 155.616 49H155.104C154.251 49 153.632 48.808 153.248 48.424C152.864 48.04 152.672 47.4213 152.672 46.568V19.816C152.672 18.2373 153.483 17.448 155.104 17.448ZM181.104 17.448H181.488C183.152 17.448 183.984 18.2587 183.984 19.88V22.568C185.947 18.856 188.955 17 193.008 17C195.611 17 197.765 17.704 199.472 19.112C201.221 20.4773 202.416 22.3973 203.056 24.872C203.739 22.3973 204.997 20.456 206.832 19.048C208.667 17.64 210.779 16.936 213.168 16.936C220.507 16.936 224.176 21.224 224.176 29.8V46.632C224.176 48.2107 223.323 49 221.616 49H221.232C219.611 49 218.8 48.2107 218.8 46.632V30.12C218.8 24.2747 216.581 21.352 212.144 21.352C209.029 21.352 206.896 22.4827 205.744 24.744C204.635 27.0053 204.08 30.0773 204.08 33.96V46.632C204.08 48.2107 203.248 49 201.584 49H201.136C199.515 49 198.704 48.2107 198.704 46.632V30.12C198.704 24.2747 196.464 21.352 191.984 21.352C186.651 21.352 183.984 25.4907 183.984 33.768V46.632C183.984 48.2107 183.152 49 181.488 49H181.104C179.483 49 178.672 48.2107 178.672 46.632V19.88C178.672 18.2587 179.483 17.448 181.104 17.448ZM237.084 5.544H237.66C239.366 5.544 240.22 6.376 240.22 8.04V46.568C240.22 48.1893 239.366 49 237.66 49H237.084C235.462 49 234.652 48.1893 234.652 46.568V8.04C234.652 6.376 235.462 5.544 237.084 5.544ZM251.232 5.544H278.496C280.117 5.544 280.928 6.35467 280.928 7.976C280.928 9.55466 280.117 10.344 278.496 10.344H267.616V46.568C267.616 48.1893 266.784 49 265.12 49H264.544C262.88 49 262.048 48.1893 262.048 46.568V10.344H251.232C249.61 10.344 248.799 9.55466 248.799 7.976C248.799 6.35467 249.61 5.544 251.232 5.544Z"/>
</mask>
<path d="M87.032 10.344V9.344H86.032V10.344H87.032ZM87.032 24.04H86.032V25.04H87.032V24.04ZM87.032 28.84V27.84H86.032V28.84H87.032ZM83.96 6.544H105.912V4.544H83.96V6.544ZM105.912 6.544C106.569 6.544 106.877 6.70745 107.029 6.85911C107.181 7.01076 107.344 7.31948 107.344 7.976H109.344C109.344 7.01119 109.102 6.1039 108.443 5.44489C107.784 4.78588 106.877 4.544 105.912 4.544V6.544ZM107.344 7.976C107.344 8.60432 107.184 8.89347 107.038 9.03553C106.888 9.1824 106.575 9.344 105.912 9.344V11.344C106.87 11.344 107.774 11.1109 108.434 10.4685C109.098 9.8212 109.344 8.92634 109.344 7.976H107.344ZM105.912 9.344H87.032V11.344H105.912V9.344ZM86.032 10.344V24.04H88.032V10.344H86.032ZM87.032 25.04H103.416V23.04H87.032V25.04ZM103.416 25.04C104.044 25.04 104.333 25.1997 104.476 25.3456C104.622 25.4965 104.784 25.8089 104.784 26.472H106.784C106.784 25.5138 106.551 24.6102 105.908 23.9504C105.261 23.2856 104.366 23.04 103.416 23.04V25.04ZM104.784 26.472C104.784 27.1072 104.626 27.3999 104.485 27.5409C104.344 27.6819 104.051 27.84 103.416 27.84V29.84C104.359 29.84 105.251 29.6035 105.899 28.9551C106.547 28.3068 106.784 27.4155 106.784 26.472H104.784ZM103.416 27.84H87.032V29.84H103.416V27.84ZM86.032 28.84V46.632H88.032V28.84H86.032ZM86.032 46.632C86.032 47.2534 85.8709 47.5392 85.7197 47.6825C85.5588 47.8353 85.2266 48 84.536 48V50C85.5094 50 86.4252 49.7701 87.0963 49.1335C87.7771 48.4875 88.032 47.5893 88.032 46.632H86.032ZM84.536 48H83.96V50H84.536V48ZM83.96 48C83.2757 48 82.9474 47.8332 82.7859 47.6758C82.6291 47.5231 82.464 47.2178 82.464 46.568H80.464C80.464 47.5395 80.7149 48.4503 81.3901 49.1082C82.0606 49.7615 82.9803 50 83.96 50V48ZM82.464 46.568V7.976H80.464V46.568H82.464ZM82.464 7.976C82.464 7.32616 82.6291 7.02093 82.7859 6.86823C82.9474 6.71084 83.2757 6.544 83.96 6.544V4.544C82.9803 4.544 82.0606 4.78249 81.3901 5.43577C80.7149 6.09374 80.464 7.0045 80.464 7.976H82.464ZM118.482 21.16L117.796 20.4327L118.482 21.16ZM140.754 21.16L141.44 20.4327L140.754 21.16ZM140.754 45.288L141.435 46.0204V46.0204L140.754 45.288ZM118.482 45.288L117.801 46.0204L118.482 45.288ZM136.978 24.424L136.234 25.0921L136.241 25.1001L136.248 25.1079L136.978 24.424ZM122.194 24.424L121.457 23.7476L121.457 23.7483L122.194 24.424ZM122.194 42.088L121.45 42.7561L121.457 42.7641L121.464 42.7719L122.194 42.088ZM136.978 42.088L136.241 41.4116L136.241 41.4123L136.978 42.088ZM119.168 21.8873C122.001 19.2141 125.463 17.872 129.618 17.872V15.872C124.984 15.872 121.022 17.3885 117.796 20.4327L119.168 21.8873ZM129.618 17.872C133.773 17.872 137.235 19.2141 140.068 21.8873L141.44 20.4327C138.214 17.3885 134.252 15.872 129.618 15.872V17.872ZM140.068 21.8873C142.849 24.512 144.298 28.2527 144.298 33.256H146.298C146.298 27.8487 144.718 23.5253 141.44 20.4327L140.068 21.8873ZM144.298 33.256C144.298 38.2601 142.849 41.9753 140.073 44.5556L141.435 46.0204C144.718 42.9687 146.298 38.6626 146.298 33.256H144.298ZM140.073 44.5556C137.241 47.1881 133.777 48.512 129.618 48.512V50.512C134.248 50.512 138.208 49.0199 141.435 46.0204L140.073 44.5556ZM129.618 48.512C125.459 48.512 121.995 47.1881 119.163 44.5556L117.801 46.0204C121.028 49.0199 124.988 50.512 129.618 50.512V48.512ZM119.163 44.5556C116.387 41.9753 114.938 38.2601 114.938 33.256H112.938C112.938 38.6626 114.518 42.9687 117.801 46.0204L119.163 44.5556ZM114.938 33.256C114.938 28.2527 116.387 24.512 119.168 21.8873L117.796 20.4327C114.518 23.5253 112.938 27.8487 112.938 33.256H114.938ZM137.722 23.7559C135.639 21.4361 132.906 20.288 129.618 20.288V22.288C132.388 22.288 134.562 23.2305 136.234 25.0921L137.722 23.7559ZM129.618 20.288C126.33 20.288 123.581 21.4356 121.457 23.7476L122.931 25.1004C124.647 23.231 126.848 22.288 129.618 22.288V20.288ZM121.457 23.7483C119.355 26.0411 118.378 29.2621 118.378 33.256H120.378C120.378 29.5699 121.278 26.9029 122.931 25.0997L121.457 23.7483ZM118.378 33.256C118.378 37.2123 119.357 40.4257 121.45 42.7561L122.938 41.4199C121.276 39.5689 120.378 36.8944 120.378 33.256H118.378ZM121.464 42.7719C123.59 45.0387 126.337 46.16 129.618 46.16V44.16C126.841 44.16 124.638 43.2333 122.924 41.4041L121.464 42.7719ZM129.618 46.16C132.899 46.16 135.63 45.0383 137.715 42.7637L136.241 41.4123C134.571 43.2337 132.395 44.16 129.618 44.16V46.16ZM137.715 42.7644C139.854 40.4343 140.858 37.2176 140.858 33.256H138.858C138.858 36.889 137.942 39.5604 136.241 41.4116L137.715 42.7644ZM140.858 33.256C140.858 29.2567 139.857 26.0326 137.708 23.7401L136.248 25.1079C137.939 26.9114 138.858 29.5753 138.858 33.256H140.858ZM157.92 23.272H156.92L158.833 23.6804L157.92 23.272ZM161.376 18.92L160.756 18.135L160.746 18.1432L161.376 18.92ZM170.72 18.088L170.109 18.8793L170.117 18.8858L170.126 18.8922L170.72 18.088ZM170.848 23.208L170.205 23.9742L170.779 24.4556L171.403 24.04L170.848 23.208ZM160.352 24.808L161.164 25.3923L161.169 25.3847L160.352 24.808ZM157.472 48.424L156.765 47.7169L157.472 48.424ZM153.248 48.424L152.541 49.1311L153.248 48.424ZM155.104 18.448H155.488V16.448H155.104V18.448ZM155.488 18.448C156.151 18.448 156.464 18.6096 156.614 18.7565C156.76 18.8985 156.92 19.1877 156.92 19.816H158.92C158.92 18.8657 158.674 17.9708 158.01 17.3235C157.35 16.6811 156.446 16.448 155.488 16.448V18.448ZM156.92 19.816V23.272H158.92V19.816H156.92ZM158.833 23.6804C159.485 22.2218 160.531 20.8922 162.006 19.6968L160.746 18.1432C159.063 19.5078 157.805 21.0796 157.007 22.8636L158.833 23.6804ZM161.996 19.7049C163.464 18.5457 164.978 18 166.56 18V16C164.472 16 162.531 16.7343 160.756 18.1351L161.996 19.7049ZM166.56 18C168.287 18 169.418 18.3455 170.109 18.8793L171.331 17.2967C170.145 16.3799 168.502 16 166.56 16V18ZM170.126 18.8922C170.894 19.46 171.192 20.0754 171.192 20.776H173.192C173.192 19.3432 172.509 18.1666 171.314 17.2838L170.126 18.8922ZM171.192 20.776C171.192 21.4455 170.928 21.9526 170.293 22.3759L171.403 24.04C172.56 23.2687 173.192 22.1545 173.192 20.776H171.192ZM171.491 22.4418C170.018 21.2063 168.388 20.544 166.624 20.544V22.544C167.846 22.544 169.033 22.991 170.205 23.9742L171.491 22.4418ZM166.624 20.544C163.651 20.544 161.257 21.792 159.535 24.2313L161.169 25.3847C162.519 23.472 164.306 22.544 166.624 22.544V20.544ZM159.54 24.2237C157.856 26.5635 157.048 29.4693 157.048 32.872H159.048C159.048 29.7894 159.776 27.3191 161.164 25.3923L159.54 24.2237ZM157.048 32.872V46.568H159.048V32.872H157.048ZM157.048 46.568C157.048 47.303 156.878 47.6036 156.765 47.7169L158.179 49.1311C158.834 48.4764 159.048 47.5396 159.048 46.568H157.048ZM156.765 47.7169C156.652 47.8302 156.351 48 155.616 48V50C156.588 50 157.524 49.7858 158.179 49.1311L156.765 47.7169ZM155.616 48H155.104V50H155.616V48ZM155.104 48C154.369 48 154.068 47.8302 153.955 47.7169L152.541 49.1311C153.196 49.7858 154.132 50 155.104 50V48ZM153.955 47.7169C153.842 47.6036 153.672 47.3031 153.672 46.568H151.672C151.672 47.5396 151.886 48.4764 152.541 49.1311L153.955 47.7169ZM153.672 46.568V19.816H151.672V46.568H153.672ZM153.672 19.816C153.672 19.1877 153.832 18.8985 153.978 18.7565C154.128 18.6096 154.441 18.448 155.104 18.448V16.448C154.146 16.448 153.242 16.6811 152.582 17.3235C151.918 17.9708 151.672 18.8657 151.672 19.816H153.672ZM183.984 22.568H182.984L184.868 23.0354L183.984 22.568ZM199.472 19.112L198.836 19.8834L198.846 19.892L198.857 19.9003L199.472 19.112ZM203.056 24.872L202.088 25.1224L203.025 28.7454L204.02 25.1379L203.056 24.872ZM206.832 19.048L206.223 18.2547L206.832 19.048ZM205.744 24.744L204.853 24.2901L204.85 24.2968L204.846 24.3036L205.744 24.744ZM181.104 18.448H181.488V16.448H181.104V18.448ZM181.488 18.448C182.172 18.448 182.501 18.6148 182.662 18.7722C182.819 18.9249 182.984 19.2302 182.984 19.88H184.984C184.984 18.9085 184.733 17.9977 184.058 17.3398C183.387 16.6865 182.468 16.448 181.488 16.448V18.448ZM182.984 19.88V22.568H184.984V19.88H182.984ZM184.868 23.0354C185.782 21.3072 186.911 20.0612 188.237 19.243C189.561 18.4261 191.139 18 193.008 18V16C190.824 16 188.871 16.5019 187.187 17.541C185.505 18.5788 184.149 20.1168 183.1 22.1006L184.868 23.0354ZM193.008 18C195.421 18 197.339 18.6483 198.836 19.8834L200.108 18.3406C198.192 16.7597 195.8 16 193.008 16V18ZM198.857 19.9003C200.407 21.1101 201.494 22.8272 202.088 25.1224L204.024 24.6216C203.338 21.9675 202.036 19.8446 200.087 18.3237L198.857 19.9003ZM204.02 25.1379C204.652 22.8487 205.798 21.1023 207.441 19.8413L206.223 18.2547C204.197 19.8097 202.826 21.946 202.092 24.6061L204.02 25.1379ZM207.441 19.8413C209.095 18.5721 210.991 17.936 213.168 17.936V15.936C210.566 15.936 208.239 16.7079 206.223 18.2547L207.441 19.8413ZM213.168 17.936C216.639 17.936 219.073 18.9427 220.664 20.8022C222.281 22.6914 223.176 25.6313 223.176 29.8H225.176C225.176 25.3927 224.236 21.9006 222.184 19.5018C220.106 17.0732 217.036 15.936 213.168 15.936V17.936ZM223.176 29.8V46.632H225.176V29.8H223.176ZM223.176 46.632C223.176 47.2463 223.014 47.529 222.857 47.6739C222.686 47.8324 222.334 48 221.616 48V50C222.605 50 223.533 49.7729 224.215 49.1421C224.912 48.4977 225.176 47.5964 225.176 46.632H223.176ZM221.616 48H221.232V50H221.616V48ZM221.232 48C220.569 48 220.256 47.8384 220.106 47.6915C219.96 47.5495 219.8 47.2603 219.8 46.632H217.8C217.8 47.5823 218.046 48.4772 218.71 49.1245C219.37 49.7669 220.274 50 221.232 50V48ZM219.8 46.632V30.12H217.8V46.632H219.8ZM219.8 30.12C219.8 27.0993 219.232 24.6508 217.932 22.9394C216.594 21.1759 214.602 20.352 212.144 20.352V22.352C214.123 22.352 215.46 22.9894 216.34 24.1486C217.259 25.3599 217.8 27.2954 217.8 30.12H219.8ZM212.144 20.352C208.756 20.352 206.218 21.6111 204.853 24.2901L206.635 25.1979C207.574 23.3542 209.303 22.352 212.144 22.352V20.352ZM204.846 24.3036C203.643 26.7562 203.08 29.9994 203.08 33.96H205.08C205.08 30.1552 205.626 27.2545 206.642 25.1844L204.846 24.3036ZM203.08 33.96V46.632H205.08V33.96H203.08ZM203.08 46.632C203.08 47.2534 202.919 47.5392 202.768 47.6825C202.607 47.8353 202.275 48 201.584 48V50C202.557 50 203.473 49.7701 204.144 49.1335C204.825 48.4875 205.08 47.5893 205.08 46.632H203.08ZM201.584 48H201.136V50H201.584V48ZM201.136 48C200.473 48 200.16 47.8384 200.01 47.6915C199.864 47.5495 199.704 47.2603 199.704 46.632H197.704C197.704 47.5823 197.95 48.4772 198.614 49.1245C199.274 49.7669 200.178 50 201.136 50V48ZM199.704 46.632V30.12H197.704V46.632H199.704ZM199.704 30.12C199.704 27.0977 199.13 24.6476 197.818 22.9357C196.467 21.1734 194.46 20.352 191.984 20.352V22.352C193.988 22.352 195.341 22.992 196.23 24.1523C197.158 25.363 197.704 27.2969 197.704 30.12H199.704ZM191.984 20.352C189.011 20.352 186.678 21.5321 185.143 23.9144C183.657 26.2212 182.984 29.554 182.984 33.768H184.984C184.984 29.7047 185.644 26.8294 186.825 24.9976C187.956 23.2413 189.623 22.352 191.984 22.352V20.352ZM182.984 33.768V46.632H184.984V33.768H182.984ZM182.984 46.632C182.984 47.2534 182.823 47.5392 182.672 47.6825C182.511 47.8353 182.179 48 181.488 48V50C182.461 50 183.377 49.7701 184.048 49.1335C184.729 48.4875 184.984 47.5893 184.984 46.632H182.984ZM181.488 48H181.104V50H181.488V48ZM181.104 48C180.441 48 180.128 47.8384 179.978 47.6915C179.832 47.5495 179.672 47.2603 179.672 46.632H177.672C177.672 47.5823 177.918 48.4772 178.582 49.1245C179.242 49.7669 180.146 50 181.104 50V48ZM179.672 46.632V19.88H177.672V46.632H179.672ZM179.672 19.88C179.672 19.2235 179.835 18.9148 179.987 18.7631C180.139 18.6115 180.447 18.448 181.104 18.448V16.448C180.139 16.448 179.232 16.6899 178.573 17.3489C177.914 18.0079 177.672 18.9152 177.672 19.88H179.672ZM237.083 6.544H237.66V4.544H237.083V6.544ZM237.66 6.544C238.365 6.544 238.709 6.71609 238.881 6.884C239.049 7.04733 239.219 7.36866 239.219 8.04H241.219C241.219 7.04734 240.963 6.12066 240.278 5.452C239.596 4.78791 238.661 4.544 237.66 4.544V6.544ZM239.219 8.04V46.568H241.219V8.04H239.219ZM239.219 46.568C239.219 47.2111 239.053 47.513 238.891 47.667C238.719 47.8301 238.371 48 237.66 48V50C238.655 50 239.587 49.7646 240.268 49.117C240.96 48.4603 241.219 47.5463 241.219 46.568H239.219ZM237.66 48H237.083V50H237.66V48ZM237.083 48C236.427 48 236.118 47.8365 235.967 47.6849C235.815 47.5332 235.652 47.2245 235.652 46.568H233.652C233.652 47.5328 233.893 48.4401 234.552 49.0991C235.211 49.7581 236.119 50 237.083 50V48ZM235.652 46.568V8.04H233.652V46.568H235.652ZM235.652 8.04C235.652 7.35572 235.818 7.02739 235.976 6.86586C236.128 6.70915 236.434 6.544 237.083 6.544V4.544C236.112 4.544 235.201 4.79485 234.543 5.47013C233.89 6.1406 233.652 7.06028 233.652 8.04H235.652ZM267.616 10.344V9.344H266.616V10.344H267.616ZM262.048 10.344H263.048V9.344H262.048V10.344ZM251.232 6.544H278.495V4.544H251.232V6.544ZM278.495 6.544C279.152 6.544 279.461 6.70745 279.612 6.85911C279.764 7.01076 279.928 7.31948 279.928 7.976H281.928C281.928 7.01119 281.686 6.1039 281.027 5.44489C280.368 4.78588 279.46 4.544 278.495 4.544V6.544ZM279.928 7.976C279.928 8.60432 279.768 8.89347 279.622 9.03553C279.471 9.1824 279.159 9.344 278.495 9.344V11.344C279.454 11.344 280.357 11.1109 281.017 10.4685C281.682 9.8212 281.928 8.92634 281.928 7.976H279.928ZM278.495 9.344H267.616V11.344H278.495V9.344ZM266.616 10.344V46.568H268.616V10.344H266.616ZM266.616 46.568C266.616 47.2178 266.45 47.5231 266.294 47.6758C266.132 47.8332 265.804 48 265.12 48V50C266.099 50 267.019 49.7615 267.689 49.1082C268.365 48.4503 268.616 47.5395 268.616 46.568H266.616ZM265.12 48H264.544V50H265.12V48ZM264.544 48C263.859 48 263.531 47.8332 263.369 47.6758C263.213 47.5231 263.048 47.2178 263.048 46.568H261.048C261.048 47.5395 261.298 48.4503 261.974 49.1082C262.644 49.7615 263.564 50 264.544 50V48ZM263.048 46.568V10.344H261.048V46.568H263.048ZM262.048 9.344H251.232V11.344H262.048V9.344ZM251.232 9.344C250.568 9.344 250.256 9.1824 250.105 9.03553C249.959 8.89347 249.799 8.60432 249.799 7.976H247.799C247.799 8.92634 248.045 9.8212 248.71 10.4685C249.37 11.1109 250.273 11.344 251.232 11.344V9.344ZM249.799 7.976C249.799 7.31948 249.963 7.01076 250.115 6.85911C250.266 6.70745 250.575 6.544 251.232 6.544V4.544C250.267 4.544 249.359 4.78588 248.7 5.44489C248.041 6.1039 247.799 7.01119 247.799 7.976H249.799Z" fill="black" mask="url(#path-1-outside-1_0_1)"/>
<path d="M81 26L49 26" stroke="black"/>
<circle cx="24.5" cy="24.5" r="24" stroke="black"/>
<circle cx="80.5" cy="135.5" r="24" stroke="black"/>
<circle cx="145.5" cy="135.5" r="24" stroke="black"/>
<circle cx="145.5" cy="203.5" r="24" stroke="black"/>
<path d="M299.5 203.5C299.5 216.785 289.397 227.5 277 227.5C264.603 227.5 254.5 216.785 254.5 203.5C254.5 190.215 264.603 179.5 277 179.5C289.397 179.5 299.5 190.215 299.5 203.5Z" stroke="black"/>
<circle cx="210.5" cy="203.5" r="24" stroke="black"/>
<circle cx="114.5" cy="271.5" r="24" stroke="black"/>
<circle cx="82.5" cy="203.5" r="24" stroke="black"/>
<circle cx="180.5" cy="270.5" r="24" stroke="black"/>
<circle cx="246.5" cy="270.5" r="24" stroke="black"/>
<circle cx="276.5" cy="135.5" r="24" stroke="black"/>
<circle cx="210.5" cy="136.5" r="24" stroke="black"/>
<path d="M130 59.5H278C279.105 59.5 280 60.3954 280 61.5V84.5" stroke="black"/>
<path d="M280 84V111" stroke="black"/>
<path d="M221.5 49.5V59.5V72.0308C221.5 73.1232 222.377 74.0136 223.469 74.0305L284.031 74.9695C285.123 74.9864 286 75.8768 286 76.9692V112.5" stroke="black"/>
<path d="M130 50.5V57.5C130 58.6046 129.105 59.5 128 59.5H84.5C83.3954 59.5 82.5 60.3954 82.5 61.5V84" stroke="black"/>
<path d="M155.5 49.5V59.5" stroke="black"/>
<path d="M155.5 59.5V85.5C155.5 86.6046 156.395 87.5 157.5 87.5H176C177.105 87.5 178 88.3954 178 89.5V111.5" stroke="black"/>
<path d="M237.5 49.5V59.5V61C237.5 62.1046 236.605 63 235.5 63H160.5C159.395 63 158.5 63.8954 158.5 65V89.5C158.5 90.6046 159.395 91.5 160.5 91.5H172.5C173.605 91.5 174.5 92.3954 174.5 93.5V112" stroke="black"/>
<path d="M265 49.5V59.5V61C265 62.1046 265.895 63 267 63H274C275.105 63 276 63.8954 276 65V111.5" stroke="black"/>
<path d="M84.5 50V58.25C84.5 58.9404 85.0596 59.5 85.75 59.5V59.5C86.4404 59.5 87 60.0596 87 60.75V111.5" stroke="black"/>
<path d="M82.5 83.5V111" stroke="black"/>
<path d="M174.5 111.5V120C174.5 121.105 173.605 122 172.5 122H165.5" stroke="black"/>
<path d="M178 111.5V126.5C178 127.605 178.895 128.5 180 128.5H187.5" stroke="black"/>
<path d="M80.5 159.5V179.5" stroke="black"/>
<path d="M145.5 159.5V179" stroke="black"/>
<path d="M207 160.5V179" stroke="black"/>
<path d="M211 160.5V179" stroke="black"/>
<path d="M234 199H254.5" stroke="black"/>
<path d="M247 198.5V177C247 175.895 247.895 175 249 175H273C274.105 175 275 174.105 275 173V160.5" stroke="black"/>
<path d="M278.5 160V179" stroke="black"/>
<path d="M211.5 167.5H270C271.105 167.5 272 166.605 272 165.5V159.5" stroke="black"/>
<path d="M148.5 159.5V171.5C148.5 172.605 147.605 173.5 146.5 173.5H97.5C96.3954 173.5 95.5 174.395 95.5 175.5V183" stroke="black"/>
<path d="M88.5 227V239C88.5 240.105 89.3954 241 90.5 241H113C114.105 241 115 241.895 115 243V247" stroke="black"/>
<path d="M145.5 228V242.5C145.5 243.605 144.605 244.5 143.5 244.5H126C124.895 244.5 124 245.395 124 246.5V250" stroke="black"/>
<path d="M150 227V250C150 251.105 150.895 252 152 252H165" stroke="black"/>
<path d="M272.5 227.5V232.5C272.5 233.605 271.605 234.5 270.5 234.5H249C247.895 234.5 247 235.395 247 236.5V246.5" stroke="black"/>
<path d="M211.5 228V247.5C211.5 248.605 210.605 249.5 209.5 249.5H201.5C200.395 249.5 199.5 250.395 199.5 251.5V255.5" stroke="black"/>
<path d="M218.5 226.5V253C218.5 254.105 219.395 255 220.5 255H228.5" stroke="black"/>
<path d="M193.5 250.5V248.5C193.5 247.395 194.395 246.5 195.5 246.5H205.5C206.605 246.5 207.5 245.605 207.5 244.5V227.5" stroke="black"/>
<path d="M84 179.5V159.5" stroke="black"/>
<path d="M104.5 140.5H112C113.105 140.5 114 139.605 114 138.5V138C114 136.895 114.895 136 116 136H121.5" stroke="black"/>
<path d="M269 60V112.5" stroke="black"/>
<path d="M207 59.5V98C207 99.1046 206.105 100 205 100H201.5C200.395 100 199.5 100.895 199.5 102V115" stroke="black"/>
<path d="M206.5 99V112.5" stroke="black"/>
<path d="M207 99H209C210.105 99 211 99.8954 211 101V112.5" stroke="black"/>
<path d="M151.5 60V100.5C151.5 101.605 150.605 102.5 149.5 102.5H147.5C146.395 102.5 145.5 103.395 145.5 104.5V111" stroke="black"/>
<path d="M151 102.5V111.5" stroke="black"/>
<path d="M167 126H172.5C173.605 126 174.5 126.895 174.5 128V129C174.5 130.105 175.395 131 176.5 131H187" stroke="black"/>
<path d="M118 247.5V240.5C118 239.395 117.105 238.5 116 238.5H85C83.8954 238.5 83 237.605 83 236.5V227.5" stroke="black"/>
<path d="M160.5 258H134" stroke="black"/>
<path d="M201.5 258.5H226.5" stroke="black"/>
<path d="M250.5 247V232C250.5 230.895 251.395 230 252.5 230H264.5C265.605 230 266.5 229.105 266.5 228V225.5" stroke="black"/>
<path d="M251 232.5H224.5C223.395 232.5 222.5 231.605 222.5 230.5V224.5" stroke="black"/>
<path d="M203 180.5V169.5C203 168.395 202.105 167.5 201 167.5H155C153.895 167.5 153 166.605 153 165.5V158.5" stroke="black"/>
<path d="M168 250.5V247C168 245.895 167.105 245 166 245H156C154.895 245 154 244.105 154 243V226" stroke="black"/>
<path d="M168 245V227.5C168 226.395 168.895 225.5 170 225.5H200" stroke="black"/>
<path d="M168.5 227H162.5C161.395 227 160.5 226.105 160.5 225V223" stroke="black"/>
<path d="M187.5 197H168.5" stroke="black"/>
<path d="M121.5 203.5H106.5" stroke="black"/>
<path d="M111 204V173.5" stroke="black"/>
<path d="M103.5 129H122.5" stroke="black"/>
<path d="M169.5 136H186.5" stroke="black"/>
<path d="M233.5 129H253.5" stroke="black"/>
<path d="M234 133H253" stroke="black"/>
<path d="M234 167V141.5" stroke="black"/>
<path d="M90.5 59.5V72.5C90.5 73.6046 89.6046 74.5 88.5 74.5H80C78.8954 74.5 78 75.3954 78 76.5V111.5" stroke="black"/>
</svg>
