<svg width="56" height="68" viewBox="0 0 56 68" fill="none" xmlns="http://www.w3.org/2000/svg">
<mask id="path-1-outside-1_0_1" maskUnits="userSpaceOnUse" x="10" y="9" width="45" height="46" fill="black">
<rect fill="white" x="10" y="9" width="45" height="46"/>
<path d="M13.896 10.544H14.472C16.1787 10.544 17.032 11.376 17.032 13.04V51.568C17.032 53.1893 16.1787 54 14.472 54H13.896C12.2747 54 11.464 53.1893 11.464 51.568V13.04C11.464 11.376 12.2747 10.544 13.896 10.544ZM24.204 10.544H51.468C53.0893 10.544 53.9 11.3547 53.9 12.976C53.9 14.5547 53.0893 15.344 51.468 15.344H40.588V51.568C40.588 53.1893 39.756 54 38.092 54H37.516C35.852 54 35.02 53.1893 35.02 51.568V15.344H24.204C22.5827 15.344 21.772 14.5547 21.772 12.976C21.772 11.3547 22.5827 10.544 24.204 10.544Z"/>
</mask>
<path d="M13.896 11.544H14.472V9.544H13.896V11.544ZM14.472 11.544C15.1775 11.544 15.5217 11.7161 15.6939 11.884C15.8614 12.0473 16.032 12.3687 16.032 13.04H18.032C18.032 12.0473 17.7759 11.1207 17.0901 10.452C16.409 9.78791 15.4732 9.544 14.472 9.544V11.544ZM16.032 13.04V51.568H18.032V13.04H16.032ZM16.032 51.568C16.032 52.2111 15.8653 52.513 15.7033 52.667C15.5316 52.8301 15.1836 53 14.472 53V55C15.467 55 16.3991 54.7646 17.0807 54.117C17.772 53.4603 18.032 52.5463 18.032 51.568H16.032ZM14.472 53H13.896V55H14.472V53ZM13.896 53C13.2395 53 12.9308 52.8365 12.7791 52.6849C12.6275 52.5332 12.464 52.2245 12.464 51.568H10.464C10.464 52.5328 10.7059 53.4401 11.3649 54.0991C12.0239 54.7581 12.9312 55 13.896 55V53ZM12.464 51.568V13.04H10.464V51.568H12.464ZM12.464 13.04C12.464 12.3557 12.6308 12.0274 12.7882 11.8659C12.9409 11.7091 13.2462 11.544 13.896 11.544V9.544C12.9245 9.544 12.0137 9.79485 11.3558 10.4701C10.7025 11.1406 10.464 12.0603 10.464 13.04H12.464ZM40.588 15.344V14.344H39.588V15.344H40.588ZM35.02 15.344H36.02V14.344H35.02V15.344ZM24.204 11.544H51.468V9.544H24.204V11.544ZM51.468 11.544C52.1245 11.544 52.4332 11.7075 52.5849 11.8591C52.7365 12.0108 52.9 12.3195 52.9 12.976H54.9C54.9 12.0112 54.6581 11.1039 53.9991 10.4449C53.3401 9.78588 52.4328 9.544 51.468 9.544V11.544ZM52.9 12.976C52.9 13.6043 52.7403 13.8935 52.5944 14.0355C52.4435 14.1824 52.1311 14.344 51.468 14.344V16.344C52.4262 16.344 53.3298 16.1109 53.9896 15.4685C54.6544 14.8212 54.9 13.9263 54.9 12.976H52.9ZM51.468 14.344H40.588V16.344H51.468V14.344ZM39.588 15.344V51.568H41.588V15.344H39.588ZM39.588 51.568C39.588 52.2178 39.4229 52.5231 39.2661 52.6758C39.1046 52.8332 38.7763 53 38.092 53V55C39.0717 55 39.9914 54.7615 40.6619 54.1082C41.3372 53.4503 41.588 52.5395 41.588 51.568H39.588ZM38.092 53H37.516V55H38.092V53ZM37.516 53C36.8317 53 36.5034 52.8332 36.3419 52.6758C36.1851 52.5231 36.02 52.2178 36.02 51.568H34.02C34.02 52.5395 34.2709 53.4503 34.9461 54.1082C35.6166 54.7615 36.5363 55 37.516 55V53ZM36.02 51.568V15.344H34.02V51.568H36.02ZM35.02 14.344H24.204V16.344H35.02V14.344ZM24.204 14.344C23.5409 14.344 23.2285 14.1824 23.0776 14.0355C22.9317 13.8935 22.772 13.6043 22.772 12.976H20.772C20.772 13.9263 21.0176 14.8212 21.6824 15.4685C22.3422 16.1109 23.2458 16.344 24.204 16.344V14.344ZM22.772 12.976C22.772 12.3195 22.9355 12.0108 23.0871 11.8591C23.2388 11.7075 23.5475 11.544 24.204 11.544V9.544C23.2392 9.544 22.3319 9.78588 21.6729 10.4449C21.0139 11.1039 20.772 12.0112 20.772 12.976H22.772Z" fill="black" mask="url(#path-1-outside-1_0_1)"/>
<path d="M24.6667 67.3333L48 67.3333C49.7681 67.3333 51.4638 66.631 52.714 65.3807C53.9643 64.1305 54.6667 62.4348 54.6667 60.6667L54.6667 7.33332C54.6667 5.56521 53.9643 3.86952 52.714 2.61928C51.4638 1.36904 49.7681 0.666655 48 0.666655L8 0.666659C6.23189 0.666659 4.5362 1.36904 3.28596 2.61928C2.03571 3.86953 1.33333 5.56522 1.33333 7.33333L1.33334 44M24.6667 67.3333L1.33334 44M24.6667 67.3333L24.6667 44L1.33334 44" stroke="black" stroke-linecap="round" stroke-linejoin="round"/>
</svg>
