<svg width="301" height="296" viewBox="0 0 301 296" fill="none" xmlns="http://www.w3.org/2000/svg">
<rect width="301" height="296" fill="#1E1E1E"/>
<mask id="path-1-outside-1_0_1" maskUnits="userSpaceOnUse" x="80" y="4" width="202" height="47" fill="black">
<rect fill="white" x="80" y="4" width="202" height="47"/>
<path d="M83.96 5.544H105.912C107.533 5.544 108.344 6.35467 108.344 7.976C108.344 9.55466 107.533 10.344 105.912 10.344H87.032V24.04H103.416C104.995 24.04 105.784 24.8507 105.784 26.472C105.784 28.0507 104.995 28.84 103.416 28.84H87.032V46.632C87.032 48.2107 86.2 49 84.536 49H83.96C82.296 49 81.464 48.1893 81.464 46.568V7.976C81.464 6.35467 82.296 5.544 83.96 5.544ZM118.482 21.16C121.511 18.3013 125.223 16.872 129.618 16.872C134.013 16.872 137.725 18.3013 140.754 21.16C143.783 24.0187 145.298 28.0507 145.298 33.256C145.298 38.4613 143.783 42.472 140.754 45.288C137.725 48.104 134.013 49.512 129.618 49.512C125.223 49.512 121.511 48.104 118.482 45.288C115.453 42.472 113.938 38.4613 113.938 33.256C113.938 28.0507 115.453 24.0187 118.482 21.16ZM136.978 24.424C135.101 22.3333 132.647 21.288 129.618 21.288C126.589 21.288 124.114 22.3333 122.194 24.424C120.317 26.472 119.378 29.416 119.378 33.256C119.378 37.0533 120.317 39.9973 122.194 42.088C124.114 44.136 126.589 45.16 129.618 45.16C132.647 45.16 135.101 44.136 136.978 42.088C138.898 39.9973 139.858 37.0533 139.858 33.256C139.858 29.416 138.898 26.472 136.978 24.424ZM155.104 17.448H155.488C157.109 17.448 157.92 18.2373 157.92 19.816V23.272C158.645 21.6507 159.797 20.2 161.376 18.92C162.997 17.64 164.725 17 166.56 17C168.395 17 169.781 17.3627 170.72 18.088C171.701 18.8133 172.192 19.7093 172.192 20.776C172.192 21.8 171.744 22.6107 170.848 23.208C169.525 22.0987 168.117 21.544 166.624 21.544C163.979 21.544 161.888 22.632 160.352 24.808C158.816 26.9413 158.048 29.6293 158.048 32.872V46.568C158.048 47.4213 157.856 48.04 157.472 48.424C157.088 48.808 156.469 49 155.616 49H155.104C154.251 49 153.632 48.808 153.248 48.424C152.864 48.04 152.672 47.4213 152.672 46.568V19.816C152.672 18.2373 153.483 17.448 155.104 17.448ZM181.104 17.448H181.488C183.152 17.448 183.984 18.2587 183.984 19.88V22.568C185.947 18.856 188.955 17 193.008 17C195.611 17 197.765 17.704 199.472 19.112C201.221 20.4773 202.416 22.3973 203.056 24.872C203.739 22.3973 204.997 20.456 206.832 19.048C208.667 17.64 210.779 16.936 213.168 16.936C220.507 16.936 224.176 21.224 224.176 29.8V46.632C224.176 48.2107 223.323 49 221.616 49H221.232C219.611 49 218.8 48.2107 218.8 46.632V30.12C218.8 24.2747 216.581 21.352 212.144 21.352C209.029 21.352 206.896 22.4827 205.744 24.744C204.635 27.0053 204.08 30.0773 204.08 33.96V46.632C204.08 48.2107 203.248 49 201.584 49H201.136C199.515 49 198.704 48.2107 198.704 46.632V30.12C198.704 24.2747 196.464 21.352 191.984 21.352C186.651 21.352 183.984 25.4907 183.984 33.768V46.632C183.984 48.2107 183.152 49 181.488 49H181.104C179.483 49 178.672 48.2107 178.672 46.632V19.88C178.672 18.2587 179.483 17.448 181.104 17.448ZM237.084 5.544H237.66C239.366 5.544 240.22 6.376 240.22 8.04V46.568C240.22 48.1893 239.366 49 237.66 49H237.084C235.462 49 234.652 48.1893 234.652 46.568V8.04C234.652 6.376 235.462 5.544 237.084 5.544ZM251.232 5.544H278.496C280.117 5.544 280.928 6.35467 280.928 7.976C280.928 9.55466 280.117 10.344 278.496 10.344H267.616V46.568C267.616 48.1893 266.784 49 265.12 49H264.544C262.88 49 262.048 48.1893 262.048 46.568V10.344H251.232C249.61 10.344 248.799 9.55466 248.799 7.976C248.799 6.35467 249.61 5.544 251.232 5.544Z"/>
</mask>
<path d="M87.032 10.344V9.344H86.032V10.344H87.032ZM87.032 24.04H86.032V25.04H87.032V24.04ZM87.032 28.84V27.84H86.032V28.84H87.032ZM83.96 6.544H105.912V4.544H83.96V6.544ZM105.912 6.544C106.569 6.544 106.877 6.70745 107.029 6.85911C107.181 7.01076 107.344 7.31948 107.344 7.976H109.344C109.344 7.01119 109.102 6.1039 108.443 5.44489C107.784 4.78588 106.877 4.544 105.912 4.544V6.544ZM107.344 7.976C107.344 8.60432 107.184 8.89347 107.038 9.03553C106.888 9.1824 106.575 9.344 105.912 9.344V11.344C106.87 11.344 107.774 11.1109 108.434 10.4685C109.098 9.8212 109.344 8.92634 109.344 7.976H107.344ZM105.912 9.344H87.032V11.344H105.912V9.344ZM86.032 10.344V24.04H88.032V10.344H86.032ZM87.032 25.04H103.416V23.04H87.032V25.04ZM103.416 25.04C104.044 25.04 104.333 25.1997 104.476 25.3456C104.622 25.4965 104.784 25.8089 104.784 26.472H106.784C106.784 25.5138 106.551 24.6102 105.908 23.9504C105.261 23.2856 104.366 23.04 103.416 23.04V25.04ZM104.784 26.472C104.784 27.1072 104.626 27.3999 104.485 27.5409C104.344 27.6819 104.051 27.84 103.416 27.84V29.84C104.359 29.84 105.251 29.6035 105.899 28.9551C106.547 28.3068 106.784 27.4155 106.784 26.472H104.784ZM103.416 27.84H87.032V29.84H103.416V27.84ZM86.032 28.84V46.632H88.032V28.84H86.032ZM86.032 46.632C86.032 47.2534 85.8709 47.5392 85.7197 47.6825C85.5588 47.8353 85.2266 48 84.536 48V50C85.5094 50 86.4252 49.7701 87.0963 49.1335C87.7771 48.4875 88.032 47.5893 88.032 46.632H86.032ZM84.536 48H83.96V50H84.536V48ZM83.96 48C83.2757 48 82.9474 47.8332 82.7859 47.6758C82.6291 47.5231 82.464 47.2178 82.464 46.568H80.464C80.464 47.5395 80.7149 48.4503 81.3901 49.1082C82.0606 49.7615 82.9803 50 83.96 50V48ZM82.464 46.568V7.976H80.464V46.568H82.464ZM82.464 7.976C82.464 7.32616 82.6291 7.02093 82.7859 6.86823C82.9474 6.71084 83.2757 6.544 83.96 6.544V4.544C82.9803 4.544 82.0606 4.78249 81.3901 5.43577C80.7149 6.09374 80.464 7.0045 80.464 7.976H82.464ZM118.482 21.16L117.796 20.4327L118.482 21.16ZM140.754 21.16L141.44 20.4327L140.754 21.16ZM140.754 45.288L141.435 46.0204V46.0204L140.754 45.288ZM118.482 45.288L117.801 46.0204L118.482 45.288ZM136.978 24.424L136.234 25.0921L136.241 25.1001L136.248 25.1079L136.978 24.424ZM122.194 24.424L121.457 23.7476L121.457 23.7483L122.194 24.424ZM122.194 42.088L121.45 42.7561L121.457 42.7641L121.464 42.7719L122.194 42.088ZM136.978 42.088L136.241 41.4116L136.241 41.4123L136.978 42.088ZM119.168 21.8873C122.001 19.2141 125.463 17.872 129.618 17.872V15.872C124.984 15.872 121.022 17.3885 117.796 20.4327L119.168 21.8873ZM129.618 17.872C133.773 17.872 137.235 19.2141 140.068 21.8873L141.44 20.4327C138.214 17.3885 134.252 15.872 129.618 15.872V17.872ZM140.068 21.8873C142.849 24.512 144.298 28.2527 144.298 33.256H146.298C146.298 27.8487 144.718 23.5253 141.44 20.4327L140.068 21.8873ZM144.298 33.256C144.298 38.2601 142.849 41.9753 140.073 44.5556L141.435 46.0204C144.718 42.9687 146.298 38.6626 146.298 33.256H144.298ZM140.073 44.5556C137.241 47.1881 133.777 48.512 129.618 48.512V50.512C134.248 50.512 138.208 49.0199 141.435 46.0204L140.073 44.5556ZM129.618 48.512C125.459 48.512 121.995 47.1881 119.163 44.5556L117.801 46.0204C121.028 49.0199 124.988 50.512 129.618 50.512V48.512ZM119.163 44.5556C116.387 41.9753 114.938 38.2601 114.938 33.256H112.938C112.938 38.6626 114.518 42.9687 117.801 46.0204L119.163 44.5556ZM114.938 33.256C114.938 28.2527 116.387 24.512 119.168 21.8873L117.796 20.4327C114.518 23.5253 112.938 27.8487 112.938 33.256H114.938ZM137.722 23.7559C135.639 21.4361 132.906 20.288 129.618 20.288V22.288C132.388 22.288 134.562 23.2305 136.234 25.0921L137.722 23.7559ZM129.618 20.288C126.33 20.288 123.581 21.4356 121.457 23.7476L122.931 25.1004C124.647 23.231 126.848 22.288 129.618 22.288V20.288ZM121.457 23.7483C119.355 26.0411 118.378 29.2621 118.378 33.256H120.378C120.378 29.5699 121.278 26.9029 122.931 25.0997L121.457 23.7483ZM118.378 33.256C118.378 37.2123 119.357 40.4257 121.45 42.7561L122.938 41.4199C121.276 39.5689 120.378 36.8944 120.378 33.256H118.378ZM121.464 42.7719C123.59 45.0387 126.337 46.16 129.618 46.16V44.16C126.841 44.16 124.638 43.2333 122.924 41.4041L121.464 42.7719ZM129.618 46.16C132.899 46.16 135.63 45.0383 137.715 42.7637L136.241 41.4123C134.571 43.2337 132.395 44.16 129.618 44.16V46.16ZM137.715 42.7644C139.854 40.4343 140.858 37.2176 140.858 33.256H138.858C138.858 36.889 137.942 39.5604 136.241 41.4116L137.715 42.7644ZM140.858 33.256C140.858 29.2567 139.857 26.0326 137.708 23.7401L136.248 25.1079C137.939 26.9114 138.858 29.5753 138.858 33.256H140.858ZM157.92 23.272H156.92L158.833 23.6804L157.92 23.272ZM161.376 18.92L160.756 18.135L160.746 18.1432L161.376 18.92ZM170.72 18.088L170.109 18.8793L170.117 18.8858L170.126 18.8922L170.72 18.088ZM170.848 23.208L170.205 23.9742L170.779 24.4556L171.403 24.04L170.848 23.208ZM160.352 24.808L161.164 25.3923L161.169 25.3847L160.352 24.808ZM157.472 48.424L156.765 47.7169L157.472 48.424ZM153.248 48.424L152.541 49.1311L153.248 48.424ZM155.104 18.448H155.488V16.448H155.104V18.448ZM155.488 18.448C156.151 18.448 156.464 18.6096 156.614 18.7565C156.76 18.8985 156.92 19.1877 156.92 19.816H158.92C158.92 18.8657 158.674 17.9708 158.01 17.3235C157.35 16.6811 156.446 16.448 155.488 16.448V18.448ZM156.92 19.816V23.272H158.92V19.816H156.92ZM158.833 23.6804C159.485 22.2218 160.531 20.8922 162.006 19.6968L160.746 18.1432C159.063 19.5078 157.805 21.0796 157.007 22.8636L158.833 23.6804ZM161.996 19.7049C163.464 18.5457 164.978 18 166.56 18V16C164.472 16 162.531 16.7343 160.756 18.1351L161.996 19.7049ZM166.56 18C168.287 18 169.418 18.3455 170.109 18.8793L171.331 17.2967C170.145 16.3799 168.502 16 166.56 16V18ZM170.126 18.8922C170.894 19.46 171.192 20.0754 171.192 20.776H173.192C173.192 19.3432 172.509 18.1666 171.314 17.2838L170.126 18.8922ZM171.192 20.776C171.192 21.4455 170.928 21.9526 170.293 22.3759L171.403 24.04C172.56 23.2687 173.192 22.1545 173.192 20.776H171.192ZM171.491 22.4418C170.018 21.2063 168.388 20.544 166.624 20.544V22.544C167.846 22.544 169.033 22.991 170.205 23.9742L171.491 22.4418ZM166.624 20.544C163.651 20.544 161.257 21.792 159.535 24.2313L161.169 25.3847C162.519 23.472 164.306 22.544 166.624 22.544V20.544ZM159.54 24.2237C157.856 26.5635 157.048 29.4693 157.048 32.872H159.048C159.048 29.7894 159.776 27.3191 161.164 25.3923L159.54 24.2237ZM157.048 32.872V46.568H159.048V32.872H157.048ZM157.048 46.568C157.048 47.303 156.878 47.6036 156.765 47.7169L158.179 49.1311C158.834 48.4764 159.048 47.5396 159.048 46.568H157.048ZM156.765 47.7169C156.652 47.8302 156.351 48 155.616 48V50C156.588 50 157.524 49.7858 158.179 49.1311L156.765 47.7169ZM155.616 48H155.104V50H155.616V48ZM155.104 48C154.369 48 154.068 47.8302 153.955 47.7169L152.541 49.1311C153.196 49.7858 154.132 50 155.104 50V48ZM153.955 47.7169C153.842 47.6036 153.672 47.3031 153.672 46.568H151.672C151.672 47.5396 151.886 48.4764 152.541 49.1311L153.955 47.7169ZM153.672 46.568V19.816H151.672V46.568H153.672ZM153.672 19.816C153.672 19.1877 153.832 18.8985 153.978 18.7565C154.128 18.6096 154.441 18.448 155.104 18.448V16.448C154.146 16.448 153.242 16.6811 152.582 17.3235C151.918 17.9708 151.672 18.8657 151.672 19.816H153.672ZM183.984 22.568H182.984L184.868 23.0354L183.984 22.568ZM199.472 19.112L198.836 19.8834L198.846 19.892L198.857 19.9003L199.472 19.112ZM203.056 24.872L202.088 25.1224L203.025 28.7454L204.02 25.1379L203.056 24.872ZM206.832 19.048L206.223 18.2547L206.832 19.048ZM205.744 24.744L204.853 24.2901L204.85 24.2968L204.846 24.3036L205.744 24.744ZM181.104 18.448H181.488V16.448H181.104V18.448ZM181.488 18.448C182.172 18.448 182.501 18.6148 182.662 18.7722C182.819 18.9249 182.984 19.2302 182.984 19.88H184.984C184.984 18.9085 184.733 17.9977 184.058 17.3398C183.387 16.6865 182.468 16.448 181.488 16.448V18.448ZM182.984 19.88V22.568H184.984V19.88H182.984ZM184.868 23.0354C185.782 21.3072 186.911 20.0612 188.237 19.243C189.561 18.4261 191.139 18 193.008 18V16C190.824 16 188.871 16.5019 187.187 17.541C185.505 18.5788 184.149 20.1168 183.1 22.1006L184.868 23.0354ZM193.008 18C195.421 18 197.339 18.6483 198.836 19.8834L200.108 18.3406C198.192 16.7597 195.8 16 193.008 16V18ZM198.857 19.9003C200.407 21.1101 201.494 22.8272 202.088 25.1224L204.024 24.6216C203.338 21.9675 202.036 19.8446 200.087 18.3237L198.857 19.9003ZM204.02 25.1379C204.652 22.8487 205.798 21.1023 207.441 19.8413L206.223 18.2547C204.197 19.8097 202.826 21.946 202.092 24.6061L204.02 25.1379ZM207.441 19.8413C209.095 18.5721 210.991 17.936 213.168 17.936V15.936C210.566 15.936 208.239 16.7079 206.223 18.2547L207.441 19.8413ZM213.168 17.936C216.639 17.936 219.073 18.9427 220.664 20.8022C222.281 22.6914 223.176 25.6313 223.176 29.8H225.176C225.176 25.3927 224.236 21.9006 222.184 19.5018C220.106 17.0732 217.036 15.936 213.168 15.936V17.936ZM223.176 29.8V46.632H225.176V29.8H223.176ZM223.176 46.632C223.176 47.2463 223.014 47.529 222.857 47.6739C222.686 47.8324 222.334 48 221.616 48V50C222.605 50 223.533 49.7729 224.215 49.1421C224.912 48.4977 225.176 47.5964 225.176 46.632H223.176ZM221.616 48H221.232V50H221.616V48ZM221.232 48C220.569 48 220.256 47.8384 220.106 47.6915C219.96 47.5495 219.8 47.2603 219.8 46.632H217.8C217.8 47.5823 218.046 48.4772 218.71 49.1245C219.37 49.7669 220.274 50 221.232 50V48ZM219.8 46.632V30.12H217.8V46.632H219.8ZM219.8 30.12C219.8 27.0993 219.232 24.6508 217.932 22.9394C216.594 21.1759 214.602 20.352 212.144 20.352V22.352C214.123 22.352 215.46 22.9894 216.34 24.1486C217.259 25.3599 217.8 27.2954 217.8 30.12H219.8ZM212.144 20.352C208.756 20.352 206.218 21.6111 204.853 24.2901L206.635 25.1979C207.574 23.3542 209.303 22.352 212.144 22.352V20.352ZM204.846 24.3036C203.643 26.7562 203.08 29.9994 203.08 33.96H205.08C205.08 30.1552 205.626 27.2545 206.642 25.1844L204.846 24.3036ZM203.08 33.96V46.632H205.08V33.96H203.08ZM203.08 46.632C203.08 47.2534 202.919 47.5392 202.768 47.6825C202.607 47.8353 202.275 48 201.584 48V50C202.557 50 203.473 49.7701 204.144 49.1335C204.825 48.4875 205.08 47.5893 205.08 46.632H203.08ZM201.584 48H201.136V50H201.584V48ZM201.136 48C200.473 48 200.16 47.8384 200.01 47.6915C199.864 47.5495 199.704 47.2603 199.704 46.632H197.704C197.704 47.5823 197.95 48.4772 198.614 49.1245C199.274 49.7669 200.178 50 201.136 50V48ZM199.704 46.632V30.12H197.704V46.632H199.704ZM199.704 30.12C199.704 27.0977 199.13 24.6476 197.818 22.9357C196.467 21.1734 194.46 20.352 191.984 20.352V22.352C193.988 22.352 195.341 22.992 196.23 24.1523C197.158 25.363 197.704 27.2969 197.704 30.12H199.704ZM191.984 20.352C189.011 20.352 186.678 21.5321 185.143 23.9144C183.657 26.2212 182.984 29.554 182.984 33.768H184.984C184.984 29.7047 185.644 26.8294 186.825 24.9976C187.956 23.2413 189.623 22.352 191.984 22.352V20.352ZM182.984 33.768V46.632H184.984V33.768H182.984ZM182.984 46.632C182.984 47.2534 182.823 47.5392 182.672 47.6825C182.511 47.8353 182.179 48 181.488 48V50C182.461 50 183.377 49.7701 184.048 49.1335C184.729 48.4875 184.984 47.5893 184.984 46.632H182.984ZM181.488 48H181.104V50H181.488V48ZM181.104 48C180.441 48 180.128 47.8384 179.978 47.6915C179.832 47.5495 179.672 47.2603 179.672 46.632H177.672C177.672 47.5823 177.918 48.4772 178.582 49.1245C179.242 49.7669 180.146 50 181.104 50V48ZM179.672 46.632V19.88H177.672V46.632H179.672ZM179.672 19.88C179.672 19.2235 179.835 18.9148 179.987 18.7631C180.139 18.6115 180.447 18.448 181.104 18.448V16.448C180.139 16.448 179.232 16.6899 178.573 17.3489C177.914 18.0079 177.672 18.9152 177.672 19.88H179.672ZM237.083 6.544H237.66V4.544H237.083V6.544ZM237.66 6.544C238.365 6.544 238.709 6.71609 238.881 6.884C239.049 7.04733 239.219 7.36866 239.219 8.04H241.219C241.219 7.04734 240.963 6.12066 240.278 5.452C239.596 4.78791 238.661 4.544 237.66 4.544V6.544ZM239.219 8.04V46.568H241.219V8.04H239.219ZM239.219 46.568C239.219 47.2111 239.053 47.513 238.891 47.667C238.719 47.8301 238.371 48 237.66 48V50C238.655 50 239.587 49.7646 240.268 49.117C240.96 48.4603 241.219 47.5463 241.219 46.568H239.219ZM237.66 48H237.083V50H237.66V48ZM237.083 48C236.427 48 236.118 47.8365 235.967 47.6849C235.815 47.5332 235.652 47.2245 235.652 46.568H233.652C233.652 47.5328 233.893 48.4401 234.552 49.0991C235.211 49.7581 236.119 50 237.083 50V48ZM235.652 46.568V8.04H233.652V46.568H235.652ZM235.652 8.04C235.652 7.35572 235.818 7.02739 235.976 6.86586C236.128 6.70915 236.434 6.544 237.083 6.544V4.544C236.112 4.544 235.201 4.79485 234.543 5.47013C233.89 6.1406 233.652 7.06028 233.652 8.04H235.652ZM267.616 10.344V9.344H266.616V10.344H267.616ZM262.048 10.344H263.048V9.344H262.048V10.344ZM251.232 6.544H278.495V4.544H251.232V6.544ZM278.495 6.544C279.152 6.544 279.461 6.70745 279.612 6.85911C279.764 7.01076 279.928 7.31948 279.928 7.976H281.928C281.928 7.01119 281.686 6.1039 281.027 5.44489C280.368 4.78588 279.46 4.544 278.495 4.544V6.544ZM279.928 7.976C279.928 8.60432 279.768 8.89347 279.622 9.03553C279.471 9.1824 279.159 9.344 278.495 9.344V11.344C279.454 11.344 280.357 11.1109 281.017 10.4685C281.682 9.8212 281.928 8.92634 281.928 7.976H279.928ZM278.495 9.344H267.616V11.344H278.495V9.344ZM266.616 10.344V46.568H268.616V10.344H266.616ZM266.616 46.568C266.616 47.2178 266.45 47.5231 266.294 47.6758C266.132 47.8332 265.804 48 265.12 48V50C266.099 50 267.019 49.7615 267.689 49.1082C268.365 48.4503 268.616 47.5395 268.616 46.568H266.616ZM265.12 48H264.544V50H265.12V48ZM264.544 48C263.859 48 263.531 47.8332 263.369 47.6758C263.213 47.5231 263.048 47.2178 263.048 46.568H261.048C261.048 47.5395 261.298 48.4503 261.974 49.1082C262.644 49.7615 263.564 50 264.544 50V48ZM263.048 46.568V10.344H261.048V46.568H263.048ZM262.048 9.344H251.232V11.344H262.048V9.344ZM251.232 9.344C250.568 9.344 250.256 9.1824 250.105 9.03553C249.959 8.89347 249.799 8.60432 249.799 7.976H247.799C247.799 8.92634 248.045 9.8212 248.71 10.4685C249.37 11.1109 250.273 11.344 251.232 11.344V9.344ZM249.799 7.976C249.799 7.31948 249.963 7.01076 250.115 6.85911C250.266 6.70745 250.575 6.544 251.232 6.544V4.544C250.267 4.544 249.359 4.78588 248.7 5.44489C248.041 6.1039 247.799 7.01119 247.799 7.976H249.799Z" fill="black" mask="url(#path-1-outside-1_0_1)"/>
<path d="M81 26L49 26" stroke="black"/>
<circle cx="24.5" cy="24.5" r="24" stroke="black"/>
<circle cx="80.5" cy="135.5" r="24" stroke="black"/>
<circle cx="145.5" cy="135.5" r="24" stroke="black"/>
<circle cx="145.5" cy="203.5" r="24" stroke="black"/>
<path d="M299.5 203.5C299.5 216.785 289.397 227.5 277 227.5C264.603 227.5 254.5 216.785 254.5 203.5C254.5 190.215 264.603 179.5 277 179.5C289.397 179.5 299.5 190.215 299.5 203.5Z" stroke="black"/>
<circle cx="210.5" cy="203.5" r="24" stroke="black"/>
<circle cx="114.5" cy="271.5" r="24" stroke="black"/>
<circle cx="82.5" cy="203.5" r="24" stroke="black"/>
<circle cx="180.5" cy="270.5" r="24" stroke="black"/>
<circle cx="246.5" cy="270.5" r="24" stroke="black"/>
<circle cx="276.5" cy="135.5" r="24" stroke="black"/>
<circle cx="210.5" cy="136.5" r="24" stroke="black"/>
<path d="M130 59.5H278C279.105 59.5 280 60.3954 280 61.5V84.5" stroke="black"/>
<path d="M280 84V111" stroke="black"/>
<path d="M221.5 49.5V59.5V72.0308C221.5 73.1232 222.377 74.0136 223.469 74.0305L284.031 74.9695C285.123 74.9864 286 75.8768 286 76.9692V112.5" stroke="black"/>
<path d="M130 50.5V57.5C130 58.6046 129.105 59.5 128 59.5H84.5C83.3954 59.5 82.5 60.3954 82.5 61.5V84" stroke="black"/>
<path d="M155.5 49.5V59.5" stroke="black"/>
<path d="M155.5 59.5V85.5C155.5 86.6046 156.395 87.5 157.5 87.5H176C177.105 87.5 178 88.3954 178 89.5V111.5" stroke="black"/>
<path d="M237.5 49.5V59.5V61C237.5 62.1046 236.605 63 235.5 63H160.5C159.395 63 158.5 63.8954 158.5 65V89.5C158.5 90.6046 159.395 91.5 160.5 91.5H172.5C173.605 91.5 174.5 92.3954 174.5 93.5V112" stroke="black"/>
<path d="M265 49.5V59.5V61C265 62.1046 265.895 63 267 63H274C275.105 63 276 63.8954 276 65V111.5" stroke="black"/>
<path d="M84.5 50V58.25C84.5 58.9404 85.0596 59.5 85.75 59.5V59.5C86.4404 59.5 87 60.0596 87 60.75V111.5" stroke="black"/>
<path d="M82.5 83.5V111" stroke="black"/>
<path d="M174.5 111.5V120C174.5 121.105 173.605 122 172.5 122H165.5" stroke="black"/>
<path d="M178 111.5V126.5C178 127.605 178.895 128.5 180 128.5H187.5" stroke="black"/>
<path d="M80.5 159.5V179.5" stroke="black"/>
<path d="M145.5 159.5V179" stroke="black"/>
<path d="M207 160.5V179" stroke="black"/>
<path d="M211 160.5V179" stroke="black"/>
<path d="M234 199H254.5" stroke="black"/>
<path d="M247 198.5V177C247 175.895 247.895 175 249 175H273C274.105 175 275 174.105 275 173V160.5" stroke="black"/>
<path d="M278.5 160V179" stroke="black"/>
<path d="M211.5 167.5H270C271.105 167.5 272 166.605 272 165.5V159.5" stroke="black"/>
<path d="M148.5 159.5V171.5C148.5 172.605 147.605 173.5 146.5 173.5H97.5C96.3954 173.5 95.5 174.395 95.5 175.5V183" stroke="black"/>
<path d="M88.5 227V239C88.5 240.105 89.3954 241 90.5 241H113C114.105 241 115 241.895 115 243V247" stroke="black"/>
<path d="M145.5 228V242.5C145.5 243.605 144.605 244.5 143.5 244.5H126C124.895 244.5 124 245.395 124 246.5V250" stroke="black"/>
<path d="M150 227V250C150 251.105 150.895 252 152 252H165" stroke="black"/>
<path d="M272.5 227.5V232.5C272.5 233.605 271.605 234.5 270.5 234.5H249C247.895 234.5 247 235.395 247 236.5V246.5" stroke="black"/>
<path d="M211.5 228V247.5C211.5 248.605 210.605 249.5 209.5 249.5H201.5C200.395 249.5 199.5 250.395 199.5 251.5V255.5" stroke="black"/>
<path d="M218.5 226.5V253C218.5 254.105 219.395 255 220.5 255H228.5" stroke="black"/>
<path d="M193.5 250.5V248.5C193.5 247.395 194.395 246.5 195.5 246.5H205.5C206.605 246.5 207.5 245.605 207.5 244.5V227.5" stroke="black"/>
<path d="M84 179.5V159.5" stroke="black"/>
<path d="M104.5 140.5H112C113.105 140.5 114 139.605 114 138.5V138C114 136.895 114.895 136 116 136H121.5" stroke="black"/>
<path d="M269 60V112.5" stroke="black"/>
<path d="M207 59.5V98C207 99.1046 206.105 100 205 100H201.5C200.395 100 199.5 100.895 199.5 102V115" stroke="black"/>
<path d="M206.5 99V112.5" stroke="black"/>
<path d="M207 99H209C210.105 99 211 99.8954 211 101V112.5" stroke="black"/>
<path d="M151.5 60V100.5C151.5 101.605 150.605 102.5 149.5 102.5H147.5C146.395 102.5 145.5 103.395 145.5 104.5V111" stroke="black"/>
<path d="M151 102.5V111.5" stroke="black"/>
<path d="M167 126H172.5C173.605 126 174.5 126.895 174.5 128V129C174.5 130.105 175.395 131 176.5 131H187" stroke="black"/>
<path d="M118 247.5V240.5C118 239.395 117.105 238.5 116 238.5H85C83.8954 238.5 83 237.605 83 236.5V227.5" stroke="black"/>
<path d="M160.5 258H134" stroke="black"/>
<path d="M201.5 258.5H226.5" stroke="black"/>
<path d="M250.5 247V232C250.5 230.895 251.395 230 252.5 230H264.5C265.605 230 266.5 229.105 266.5 228V225.5" stroke="black"/>
<path d="M251 232.5H224.5C223.395 232.5 222.5 231.605 222.5 230.5V224.5" stroke="black"/>
<path d="M203 180.5V169.5C203 168.395 202.105 167.5 201 167.5H155C153.895 167.5 153 166.605 153 165.5V158.5" stroke="black"/>
<path d="M168 250.5V247C168 245.895 167.105 245 166 245H156C154.895 245 154 244.105 154 243V226" stroke="black"/>
<path d="M168 245V227.5C168 226.395 168.895 225.5 170 225.5H200" stroke="black"/>
<path d="M168.5 227H162.5C161.395 227 160.5 226.105 160.5 225V223" stroke="black"/>
<path d="M187.5 197H168.5" stroke="black"/>
<path d="M121.5 203.5H106.5" stroke="black"/>
<path d="M111 204V173.5" stroke="black"/>
<path d="M103.5 129H122.5" stroke="black"/>
<path d="M169.5 136H186.5" stroke="black"/>
<path d="M233.5 129H253.5" stroke="black"/>
<path d="M234 133H253" stroke="black"/>
<path d="M234 167V141.5" stroke="black"/>
<path d="M90.5 59.5V72.5C90.5 73.6046 89.6046 74.5 88.5 74.5H80C78.8954 74.5 78 75.3954 78 76.5V111.5" stroke="black"/>
<path d="M28 10H16C15.2044 10 14.4413 10.3161 13.8787 10.8787C13.3161 11.4413 13 12.2044 13 13V37C13 37.7956 13.3161 38.5587 13.8787 39.1213C14.4413 39.6839 15.2044 40 16 40H34C34.7956 40 35.5587 39.6839 36.1213 39.1213C36.6839 38.5587 37 37.7956 37 37V19M28 10L37 19M28 10V19H37M31 26.5H19M31 32.5H19M22 20.5H19" stroke="black" stroke-width="4" stroke-linecap="round" stroke-linejoin="round"/>
<path d="M94 194.667C94 196.876 88.6274 198.667 82 198.667C75.3726 198.667 70 196.876 70 194.667M94 194.667C94 192.458 88.6274 190.667 82 190.667C75.3726 190.667 70 192.458 70 194.667M94 194.667V213.333C94 215.547 88.6667 217.333 82 217.333C75.3333 217.333 70 215.547 70 213.333V194.667M94 204C94 206.213 88.6667 208 82 208C75.3333 208 70 206.213 70 204" stroke="#010101" stroke-width="2" stroke-linecap="round" stroke-linejoin="round"/>
<path fill-rule="evenodd" clipRule="evenodd" d="M145 187C153.822 187 161 194.178 161 203C161 211.822 153.822 219 145 219C136.178 219 129 211.822 129 203C129 194.178 136.178 187 145 187ZM145 190.2C137.917 190.2 132.2 195.917 132.2 203C132.2 210.083 137.917 215.8 145 215.8C152.083 215.8 157.8 210.083 157.8 203C157.8 195.917 152.083 190.2 145 190.2ZM145.069 195.659C146.279 197.232 146.687 199.168 146.299 200.582C146.251 200.814 147.957 202.628 151.417 206.023C152.548 207.154 152.548 208.285 151.417 209.417C150.352 210.481 149.287 210.544 148.222 209.605L142.607 204.274C141.193 204.662 139.258 204.254 137.684 203.043C136.53 201.526 136.132 199.542 136.453 198.12L138.915 200.582L141.376 199.351L142.607 196.889L140.145 194.428C141.567 194.106 143.551 194.504 145.069 195.659Z" fill="black"/>
<path d="M215.634 212.52H200.086V191.803H215.63V193.353H217.719V191.38C217.721 189.522 216.078 188 214.079 188H201.64C199.638 188 198 189.522 198 191.38V215.618C198 217.479 199.638 219 201.64 219H214.079C216.078 219 217.721 217.479 217.721 215.618V212.484H215.634V212.52ZM207.857 217.308C206.935 217.308 206.191 216.615 206.191 215.759C206.191 214.901 206.935 214.21 207.857 214.21C208.781 214.21 209.527 214.903 209.527 215.759C209.527 216.615 208.781 217.308 207.857 217.308Z" fill="black"/>
<path d="M206.531 193.883H201.868V196.525H206.531V193.883Z" fill="black"/>
<path d="M206.531 200.647H201.868V203.289H206.531V200.647Z" fill="black"/>
<path d="M206.531 207.727H201.868V210.368H206.531V207.727Z" fill="black"/>
<path d="M223.085 201.809C222.92 201.008 222.586 200.267 222.114 199.619L223.786 198.064L222.078 196.482L220.408 198.034C219.714 197.593 218.912 197.287 218.053 197.132V194.931H215.636V197.132C214.775 197.287 213.98 197.594 213.279 198.034L211.612 196.482L209.904 198.065L211.573 199.62C211.102 200.268 210.77 201.009 210.605 201.808H208.238V204.053H210.605C210.77 204.85 211.104 205.591 211.575 206.241L209.904 207.793L211.612 209.374L213.283 207.823C213.982 208.264 214.779 208.572 215.64 208.727V210.925H218.057V208.726C218.916 208.573 219.712 208.263 220.412 207.824L222.082 209.375L223.79 207.793L222.118 206.241C222.59 205.593 222.923 204.851 223.089 204.051H225.457V201.809H223.085ZM216.847 205.372C215.394 205.372 214.214 204.282 214.214 202.93C214.214 201.58 215.394 200.482 216.847 200.482C218.302 200.482 219.476 201.578 219.476 202.93C219.476 204.283 218.299 205.372 216.847 205.372Z" fill="black"/>
<path d="M293.592 207.565L294 205.169L287.795 204.151V199.179C287.795 199.083 287.795 198.999 287.795 198.903L293.868 197.274L293.256 194.961L287.459 196.507C287.065 195.018 286.355 193.63 285.378 192.438C284.4 191.245 283.179 190.276 281.795 189.594V186H279.394V188.672C277.815 188.304 276.173 188.304 274.594 188.672V186H272.193V189.594C270.805 190.283 269.582 191.263 268.606 192.466C267.631 193.669 266.926 195.068 266.541 196.567L260.744 194.961L260.192 197.274L266.193 198.903C266.193 198.999 266.193 199.083 266.193 199.179V204.151L260 205.169L260.384 207.565L266.193 206.583C266.22 208.061 266.555 209.517 267.177 210.86L261.74 216.299L263.444 218L268.473 212.968C269.483 214.262 270.775 215.31 272.252 216.03C273.729 216.75 275.351 217.124 276.994 217.124C278.637 217.124 280.259 216.75 281.736 216.03C283.213 215.31 284.505 214.262 285.515 212.968L290.544 218L292.248 216.299L286.799 210.86C287.425 209.518 287.764 208.062 287.795 206.583L293.592 207.565ZM275.794 214.657C273.796 214.37 271.969 213.373 270.647 211.851C269.324 210.329 268.595 208.382 268.593 206.367V199.179H275.794V214.657ZM268.941 196.782C269.457 195.05 270.519 193.53 271.97 192.45C273.422 191.369 275.184 190.785 276.994 190.785C278.804 190.785 280.566 191.369 282.018 192.45C283.469 193.53 284.531 195.05 285.047 196.782H268.941ZM285.395 206.367C285.393 208.382 284.664 210.329 283.341 211.851C282.019 213.373 280.192 214.37 278.194 214.657V199.179H285.395V206.367Z" fill="black"/>
<path d="M124.238 261.365C123.785 261.72 123.32 262.057 122.836 262.36C123.093 262.956 123.322 263.585 123.528 264.235L121.525 264.262C121.406 263.929 121.292 263.59 121.158 263.274C120.235 263.711 119.272 264.049 118.283 264.305L110.516 264.409C109.508 264.178 108.521 263.86 107.58 263.438C107.454 263.762 107.351 264.111 107.237 264.453L105.271 264.479C105.459 263.823 105.67 263.19 105.912 262.587C105.418 262.297 104.943 261.972 104.485 261.63C103.623 262.492 102.875 263.463 102.258 264.52L99.4642 264.557C102.097 258.993 107.714 255.089 114.275 255.002C120.837 254.914 126.555 258.665 129.335 264.157L126.542 264.194C125.896 263.155 125.123 262.202 124.238 261.365ZM105.918 260.388C106.176 260.567 106.435 260.744 106.705 260.906C107.028 260.292 107.381 259.708 107.764 259.181C107.111 259.533 106.499 259.941 105.918 260.388ZM108.343 261.758C109.188 262.132 110.057 262.432 110.95 262.638C111.174 260.838 111.51 259.1 112.002 257.766C110.576 258.512 109.322 259.908 108.343 261.758ZM114.497 257.472C114.434 257.472 114.372 257.465 114.308 257.466C114.243 257.467 114.182 257.475 114.119 257.477C113.673 258.228 113.15 260.097 112.784 262.932C113.314 262.987 113.847 263.019 114.381 263.012C114.918 263.005 115.449 262.958 115.975 262.889C115.535 260.065 114.962 258.211 114.497 257.472ZM116.631 257.733C117.153 259.049 117.531 260.765 117.803 262.547C118.676 262.321 119.522 262.004 120.34 261.619C119.317 259.812 118.044 258.451 116.631 257.733ZM120.897 259.005C121.293 259.522 121.659 260.097 122.003 260.702C122.267 260.533 122.521 260.349 122.775 260.163C122.18 259.731 121.559 259.339 120.897 259.005Z" fill="black"/>
<path d="M104.757 281.903C105.207 281.548 105.677 281.211 106.157 280.906C105.903 280.313 105.673 279.684 105.466 279.033L107.432 279.006C107.549 279.346 107.665 279.689 107.8 280.011C108.73 279.564 109.71 279.222 110.71 278.962L118.475 278.858C119.471 279.088 120.442 279.401 121.376 279.812C121.504 279.491 121.608 279.149 121.719 278.815L123.721 278.788C123.533 279.445 123.321 280.079 123.081 280.681C123.573 280.97 124.046 281.296 124.509 281.637C125.369 280.777 126.117 279.804 126.733 278.748L129.526 278.71C126.895 284.273 121.279 288.178 114.718 288.266C108.157 288.354 102.438 284.6 99.6581 279.11L102.452 279.073C103.098 280.112 103.872 281.065 104.757 281.903ZM123.079 282.881C122.821 282.701 122.561 282.524 122.293 282.363C121.966 282.977 121.615 283.56 121.233 284.087C121.885 283.735 122.496 283.327 123.079 282.881ZM120.609 281.49C119.78 281.131 118.926 280.834 118.047 280.633C117.823 282.423 117.491 284.142 117.004 285.476C118.396 284.718 119.632 283.321 120.609 281.49ZM114.498 285.795C114.561 285.797 114.623 285.802 114.687 285.801C114.752 285.8 114.813 285.793 114.876 285.79C115.322 285.039 115.845 283.17 116.211 280.336C115.683 280.281 115.15 280.247 114.614 280.254C114.076 280.262 113.546 280.309 113.019 280.379C113.463 283.202 114.033 285.056 114.498 285.795ZM112.375 285.562C111.847 284.243 111.465 282.514 111.192 280.72C110.305 280.952 109.445 281.274 108.61 281.671C109.638 283.495 110.928 284.857 112.375 285.562ZM108.1 284.262C107.703 283.744 107.334 283.168 106.995 282.566C106.73 282.736 106.475 282.92 106.222 283.106C106.815 283.537 107.438 283.928 108.1 284.262Z" fill="black"/>
<path d="M126.191 274.783L125.498 272.468C125.314 271.851 125.171 271.242 125.038 270.419L125.011 270.419C124.887 271.232 124.773 271.83 124.62 272.48L124.029 274.812L122.097 274.838L119.981 268.259L121.994 268.232L122.596 270.845C122.755 271.601 122.9 272.341 123.005 273.097L123.032 273.097C123.157 272.337 123.323 271.595 123.489 270.847L124.115 268.204L125.737 268.182L126.476 270.888C126.647 271.533 126.846 272.29 126.992 273.044L127.019 273.043C127.117 272.284 127.242 271.552 127.368 270.861L127.859 268.151L129.954 268.123L128.124 274.756L126.191 274.783Z" fill="black"/>
<path d="M112.085 270.984C112.246 271.74 112.388 272.48 112.491 273.237L112.52 273.236C112.643 272.477 112.81 271.733 112.975 270.986L113.605 268.343L115.227 268.321L115.966 271.027C116.137 271.673 116.336 272.428 116.481 273.183L116.508 273.183C116.606 272.424 116.731 271.691 116.857 271L117.348 268.289L119.443 268.261L117.612 274.895L115.68 274.921L114.987 272.607C114.803 271.986 114.659 271.38 114.527 270.556L114.5 270.557C114.375 271.369 114.261 271.968 114.107 272.618L113.517 274.95L111.584 274.976L109.472 268.395L111.486 268.368L112.085 270.984Z" fill="black"/>
<path d="M101.569 271.125C101.729 271.881 101.873 272.621 101.977 273.378L102.003 273.377C102.127 272.618 102.295 271.874 102.46 271.126L103.087 268.483L104.711 268.462L105.451 271.167C105.621 271.814 105.821 272.569 105.967 273.324L105.992 273.324C106.09 272.565 106.215 271.832 106.341 271.141L106.832 268.43L108.929 268.402L107.096 275.036L105.166 275.062L104.47 272.747C104.287 272.127 104.143 271.521 104.01 270.697L103.985 270.697C103.862 271.51 103.748 272.108 103.595 272.759L103.004 275.091L101.072 275.117L98.9571 268.536L100.972 268.509L101.569 271.125Z" fill="black"/>
<path d="M161.296 121H129.074C128.481 121 128 121.481 128 122.074V148.926C128 149.519 128.481 150 129.074 150H161.296C161.889 150 162.37 149.519 162.37 148.926V122.074C162.37 121.481 161.889 121 161.296 121ZM160.222 123.148V127.444H130.148V123.148H160.222ZM130.148 147.852V129.593H160.222V147.852H130.148Z" fill="black"/>
<path d="M133.37 126.37C133.65 126.37 133.929 126.258 134.128 126.054C134.332 125.855 134.444 125.576 134.444 125.296C134.444 125.017 134.332 124.738 134.128 124.534C133.73 124.136 133.011 124.136 132.608 124.539C132.409 124.738 132.296 125.012 132.296 125.296C132.296 125.581 132.409 125.855 132.613 126.059C132.812 126.258 133.091 126.37 133.37 126.37Z" fill="black"/>
<path d="M136.593 126.37C136.872 126.37 137.151 126.258 137.355 126.054C137.554 125.855 137.667 125.576 137.667 125.296C137.667 125.017 137.554 124.738 137.35 124.534C136.952 124.136 136.233 124.136 135.83 124.539C135.631 124.738 135.519 125.017 135.519 125.296C135.519 125.576 135.631 125.855 135.835 126.059C136.034 126.258 136.313 126.37 136.593 126.37Z" fill="black"/>
<path d="M139.815 126.37C140.099 126.37 140.373 126.258 140.572 126.054C140.776 125.855 140.889 125.581 140.889 125.296C140.889 125.017 140.776 124.738 140.572 124.534C140.175 124.136 139.455 124.136 139.052 124.539C138.854 124.738 138.741 125.017 138.741 125.296C138.741 125.581 138.854 125.855 139.058 126.054C139.256 126.258 139.535 126.37 139.815 126.37Z" fill="black"/>
<path d="M144.648 131.741H133.37C132.777 131.741 132.296 132.222 132.296 132.815C132.296 133.408 132.777 133.889 133.37 133.889H144.648C145.241 133.889 145.722 133.408 145.722 132.815C145.722 132.222 145.241 131.741 144.648 131.741Z" fill="black"/>
<path d="M144.648 136.037H133.37C132.777 136.037 132.296 136.518 132.296 137.111C132.296 137.704 132.777 138.185 133.37 138.185H144.648C145.241 138.185 145.722 137.704 145.722 137.111C145.722 136.518 145.241 136.037 144.648 136.037Z" fill="black"/>
<path d="M144.648 140.333H133.37C132.777 140.333 132.296 140.815 132.296 141.407C132.296 142 132.777 142.481 133.37 142.481H144.648C145.241 142.481 145.722 142 145.722 141.407C145.722 140.815 145.241 140.333 144.648 140.333Z" fill="black"/>
<path d="M157 131.741H148.944C148.352 131.741 147.87 132.222 147.87 132.815V141.407C147.87 142 148.352 142.481 148.944 142.481H157C157.593 142.481 158.074 142 158.074 141.407V132.815C158.074 132.222 157.593 131.741 157 131.741ZM155.926 140.333H150.019V133.889H155.926V140.333Z" fill="black"/>
<path d="M187.773 254H173.227C172.637 254 172.07 254.23 171.652 254.64C171.235 255.051 171 255.607 171 256.187V284.813C171 285.393 171.235 285.949 171.652 286.36C172.07 286.77 172.637 287 173.227 287H187.773C188.363 287 188.93 286.77 189.348 286.36C189.765 285.949 190 285.393 190 284.813V256.187C190 255.607 189.765 255.051 189.348 254.64C188.93 254.23 188.363 254 187.773 254ZM188.538 284.815C188.538 285.014 188.457 285.205 188.314 285.346C188.17 285.486 187.975 285.565 187.773 285.565H182.692V284.13H178.308V285.565H173.227C173.025 285.565 172.83 285.486 172.686 285.346C172.543 285.205 172.462 285.014 172.462 284.815V282.696H188.538V284.815ZM188.538 281.261H172.462V258.304H188.538V281.261ZM188.538 256.87H172.462V256.185C172.462 255.986 172.543 255.795 172.686 255.654C172.83 255.514 173.025 255.435 173.227 255.435H187.773C187.975 255.435 188.17 255.514 188.314 255.654C188.457 255.795 188.538 255.986 188.538 256.185V256.87ZM177.138 265.048V275.952L185.908 270.5L177.138 265.048ZM178.308 267.133L183.723 270.5L178.308 273.867V267.133Z" fill="black"/>
<path d="M81.5794 126.257C81.7554 125.957 82.0394 125.736 82.3767 125.647L82.3861 125.644C82.4954 125.607 82.6207 125.585 82.7527 125.585C82.9887 125.585 83.2074 125.656 83.3914 125.776L83.3874 125.773C83.6794 125.959 83.8968 126.239 83.9981 126.569L84.0008 126.58C84.0341 126.684 84.0528 126.805 84.0528 126.929C84.0528 127.185 83.9728 127.421 83.8368 127.616L83.8395 127.612L78.2259 137.355H82.2901H82.3287C82.9514 137.355 83.4888 137.72 83.7381 138.249L83.7421 138.259C83.8995 138.515 83.9915 138.825 83.9915 139.157C83.9915 139.467 83.9101 139.757 83.7688 140.009L83.7728 140H71.843C71.8323 140 71.8203 140 71.8069 140C71.4429 140 71.1136 139.852 70.8749 139.612C70.6362 139.379 70.4882 139.055 70.4882 138.695C70.4882 138.688 70.4882 138.681 70.4882 138.676V138.677C70.4882 138.672 70.4882 138.665 70.4882 138.659C70.4882 138.299 70.6362 137.975 70.8749 137.741C71.1123 137.501 71.4429 137.353 71.8069 137.353H71.8443H75.1978L79.4553 129.935L78.1605 127.616C78.0272 127.425 77.9472 127.188 77.9472 126.933C77.9472 126.808 77.9659 126.688 78.0019 126.575L77.9992 126.583C78.1032 126.241 78.3206 125.961 78.6072 125.78L78.6126 125.776C78.7912 125.657 79.0113 125.588 79.2473 125.588C79.3779 125.588 79.5046 125.609 79.6219 125.649L79.6139 125.647C79.9606 125.739 80.2446 125.96 80.4166 126.253L80.4206 126.26L81.0007 127.292L81.5794 126.257ZM74.6764 143.547C74.4751 143.835 74.1857 144.051 73.8497 144.157L73.839 144.16C73.731 144.196 73.6057 144.217 73.4764 144.217C73.2403 144.217 73.0203 144.148 72.835 144.028L72.839 144.031C72.5363 143.857 72.3136 143.572 72.227 143.233L72.2256 143.224C72.199 143.12 72.183 143 72.183 142.876C72.183 142.625 72.247 142.389 72.3576 142.184L72.3536 142.192L73.3217 140.579C73.547 140.497 73.8084 140.449 74.0804 140.449C74.8217 140.449 75.4804 140.801 75.8978 141.348L75.9018 141.353L74.6764 143.547ZM90.225 137.355H90.2611C90.6251 137.355 90.9544 137.503 91.1931 137.743C91.4318 137.976 91.5798 138.3 91.5798 138.66V138.679V138.696C91.5798 139.056 91.4318 139.38 91.1931 139.613C90.9557 139.853 90.6251 140.001 90.2611 140.001C90.2491 140.001 90.2357 140.001 90.2237 140.001H88.3543L89.645 142.195C89.745 142.377 89.8037 142.595 89.8037 142.827C89.8037 142.969 89.781 143.108 89.7397 143.237L89.7424 143.228C89.6384 143.569 89.421 143.849 89.1343 144.031L89.129 144.035C88.9503 144.152 88.7303 144.223 88.4956 144.223C88.365 144.223 88.2396 144.201 88.1223 144.161L88.1303 144.164C87.7836 144.072 87.4996 143.851 87.3276 143.557L87.3236 143.551L82.4847 135.1C82.1207 134.528 81.9047 133.831 81.9047 133.084C81.9047 132.839 81.9274 132.6 81.9727 132.367L81.9687 132.391C82.09 131.693 82.4381 131.092 82.9327 130.652L82.9354 130.649L86.8062 137.359L90.225 137.355ZM80.9993 120.001H81.102C84.0155 120.001 86.7409 120.804 89.0703 122.201L88.9997 122.163C91.4318 123.596 93.4052 125.569 94.7972 127.925L94.8386 128C96.196 130.259 97 132.984 97 135.897V136.005V136V136.103C97 139.016 96.1973 141.741 94.7999 144.071L94.8386 144C93.4052 146.432 91.4318 148.405 89.0757 149.797L89.001 149.839C86.7422 151.196 84.0168 152 81.1033 152C81.0673 152 81.0313 152 80.9953 152H81.0007C80.97 152 80.934 152 80.898 152C77.9845 152 75.2591 151.197 72.9297 149.8L73.0003 149.839C70.5682 148.405 68.5948 146.432 67.2028 144.075L67.1614 144C65.804 141.741 65 139.016 65 136.103C65 136.067 65 136.031 65 135.995V136C65 135.969 65 135.933 65 135.897C65 132.984 65.8027 130.259 67.2001 127.929L67.1614 128C68.5948 125.568 70.5682 123.595 72.9243 122.203L72.999 122.161C75.2578 120.804 77.9832 120 80.8967 120H81.0047H80.9993V120.001ZM94.9359 136C94.9359 135.964 94.9359 135.923 94.9359 135.88C94.9359 133.345 94.2425 130.972 93.0345 128.94L93.0692 129.003C91.8238 126.885 90.0997 125.172 88.0396 123.975L87.973 123.939C85.9929 122.764 83.6088 122.069 81.062 122.069C81.0287 122.069 80.9953 122.069 80.962 122.069H80.9673C80.938 122.069 80.9033 122.069 80.8673 122.069C78.3352 122.069 75.9645 122.764 73.9377 123.975L73.999 123.94C71.8816 125.185 70.1682 126.908 68.9708 128.968L68.9348 129.035C67.7588 131.015 67.0641 133.401 67.0641 135.949V136.036V136.032V136.132C67.0641 138.664 67.7588 141.035 68.9695 143.061L68.9348 143C70.1802 145.117 71.9043 146.831 73.9644 148.028L74.031 148.064C76.0111 149.24 78.3979 149.935 80.946 149.935H81.0353H81.0313H81.1313C83.6634 149.935 86.0342 149.24 88.061 148.029L87.9996 148.064C90.1197 146.819 91.8344 145.095 93.0332 143.033L93.0692 142.967C94.2452 140.992 94.9399 138.611 94.9399 136.068C94.9399 136.044 94.9399 136.019 94.9399 135.995V135.999L94.9359 136Z" fill="black"/>
<path d="M260.95 281.5C260.466 281.977 259.858 282.308 259.195 282.457C258.532 282.605 257.841 282.565 257.2 282.34L253.675 285.865C253.627 285.914 253.57 285.954 253.507 285.981C253.444 286.008 253.376 286.021 253.307 286.021C253.239 286.021 253.171 286.008 253.108 285.981C253.045 285.954 252.988 285.914 252.94 285.865L251.44 284.365C251.347 284.265 251.296 284.134 251.296 283.998C251.296 283.861 251.347 283.73 251.44 283.63L254.98 280.105C254.734 279.421 254.701 278.679 254.886 277.976C255.071 277.273 255.466 276.643 256.018 276.169C256.569 275.696 257.252 275.401 257.974 275.325C258.697 275.248 259.426 275.393 260.065 275.74L257.68 278.2L259.18 279.7L261.61 277.27C261.97 277.952 262.1 278.732 261.981 279.494C261.862 280.256 261.5 280.96 260.95 281.5ZM262 265V273.64C260.891 272.895 259.586 272.498 258.25 272.5C257.595 272.502 256.943 272.598 256.315 272.785V266.935H253.99V274C253.21 274.634 252.582 275.435 252.151 276.343C251.72 277.252 251.498 278.245 251.5 279.25C251.485 279.5 251.485 279.75 251.5 280H235C234.204 280 233.441 279.684 232.879 279.121C232.316 278.559 232 277.796 232 277V265C232 264.204 232.316 263.441 232.879 262.879C233.441 262.316 234.204 262 235 262H259C259.796 262 260.559 262.316 261.121 262.879C261.684 263.441 262 264.204 262 265ZM245.5 275.5L242.635 266.905H239.5L236.755 275.5H239.305L239.74 273.895H242.5L242.935 275.5H245.5ZM252.655 269.665C252.68 269.287 252.618 268.908 252.475 268.558C252.332 268.207 252.112 267.893 251.83 267.64C251.13 267.122 250.268 266.872 249.4 266.935H246.4V275.5H248.71V272.665H249.37C249.881 272.674 250.39 272.587 250.87 272.41C251.25 272.267 251.593 272.042 251.875 271.75C252.126 271.475 252.31 271.147 252.415 270.79C252.546 270.429 252.616 270.049 252.625 269.665H252.655ZM241.705 270.595L241.525 269.935L241.3 269.065C241.3 268.75 241.18 268.51 241.135 268.315C241.098 268.557 241.048 268.798 240.985 269.035C240.985 269.32 240.865 269.605 240.79 269.89C240.715 270.175 240.67 270.4 240.61 270.595L240.25 271.99H242.035L241.705 270.595ZM250.09 269.095C249.991 269.001 249.872 268.929 249.743 268.885C249.614 268.841 249.476 268.826 249.34 268.84H248.74V270.805H249.205C249.395 270.81 249.584 270.774 249.76 270.7C249.925 270.633 250.066 270.518 250.165 270.37C250.281 270.181 250.338 269.962 250.33 269.74C250.33 269.61 250.3 269.481 250.243 269.364C250.186 269.247 250.103 269.145 250 269.065L250.09 269.095Z" fill="black"/>
<path d="M279.912 123.29C278.517 123.311 277.154 123.716 275.974 124.46C274.794 125.205 273.842 126.26 273.222 127.51L273.205 127.539C272.345 127.353 271.456 127.348 270.594 127.523C269.732 127.698 268.916 128.051 268.197 128.558C267.478 129.065 266.872 129.716 266.418 130.469C265.964 131.222 265.671 132.062 265.558 132.934L265.472 132.975C264.147 132.835 262.819 133.219 261.774 134.046C260.729 134.872 260.048 136.075 259.878 137.397C259.791 138.125 259.863 138.863 260.089 139.561C260.316 140.259 260.69 140.899 261.188 141.438C261.686 141.977 262.294 142.401 262.972 142.682C263.65 142.962 264.38 143.093 265.113 143.064L286.99 143.068L286.992 143.057C290.211 143.008 292.896 140.58 293.264 137.379C293.438 135.705 292.943 134.031 291.889 132.721C290.834 131.41 289.305 130.569 287.633 130.38L287.605 130.38C287.527 129.03 287.086 127.727 286.328 126.607C285.571 125.487 284.525 124.593 283.301 124.018C282.243 123.52 281.081 123.27 279.912 123.29Z" stroke="black" stroke-width="2" stroke-miterlimit="10" stroke-linecap="round" stroke-linejoin="round"/>
<path d="M223.898 134.095C224.261 133.017 224.386 131.876 224.266 130.747C224.146 129.618 223.783 128.527 223.201 127.547C222.339 126.066 221.022 124.894 219.44 124.199C217.859 123.504 216.095 123.322 214.402 123.68C213.44 122.625 212.214 121.838 210.846 121.398C209.478 120.958 208.017 120.881 206.61 121.175C205.202 121.468 203.898 122.122 202.828 123.07C201.757 124.018 200.959 125.227 200.512 126.576C199.384 126.804 198.319 127.267 197.387 127.934C196.455 128.6 195.678 129.456 195.108 130.442C194.237 131.921 193.864 133.634 194.044 135.335C194.225 137.036 194.949 138.636 196.112 139.904C195.748 140.981 195.621 142.123 195.741 143.252C195.86 144.381 196.222 145.472 196.803 146.452C197.666 147.933 198.984 149.106 200.567 149.801C202.15 150.496 203.915 150.677 205.609 150.319C206.373 151.168 207.312 151.846 208.363 152.308C209.414 152.77 210.552 153.006 211.703 153C213.438 153.001 215.129 152.459 216.531 151.451C217.933 150.443 218.975 149.022 219.505 147.392C220.632 147.164 221.698 146.701 222.629 146.034C223.561 145.367 224.338 144.512 224.908 143.525C225.77 142.049 226.136 140.342 225.955 138.648C225.773 136.955 225.053 135.361 223.898 134.095ZM211.703 150.905C210.282 150.908 208.906 150.416 207.815 149.518L208.007 149.411L214.466 145.733C214.626 145.64 214.76 145.507 214.853 145.348C214.946 145.189 214.995 145.008 214.996 144.825V135.842L217.727 137.4C217.74 137.407 217.752 137.417 217.761 137.429C217.77 137.441 217.776 137.455 217.778 137.47V144.913C217.775 146.501 217.134 148.024 215.995 149.147C214.856 150.27 213.313 150.902 211.703 150.905ZM198.645 145.405C197.932 144.191 197.676 142.768 197.922 141.387L198.114 141.5L204.579 145.178C204.739 145.27 204.921 145.319 205.107 145.319C205.292 145.319 205.474 145.27 205.634 145.178L213.532 140.687V143.796C213.531 143.813 213.527 143.828 213.519 143.842C213.511 143.857 213.5 143.869 213.487 143.878L206.945 147.6C205.549 148.394 203.891 148.608 202.335 148.196C200.778 147.785 199.451 146.781 198.645 145.405ZM196.944 131.527C197.661 130.306 198.794 129.374 200.141 128.897V136.467C200.139 136.649 200.186 136.83 200.278 136.988C200.371 137.147 200.504 137.278 200.665 137.369L208.525 141.841L205.794 143.399C205.779 143.407 205.763 143.411 205.746 143.411C205.729 143.411 205.713 143.407 205.698 143.399L199.169 139.684C197.776 138.887 196.759 137.578 196.342 136.043C195.925 134.509 196.141 132.873 196.944 131.496V131.527ZM219.377 136.668L211.492 132.152L214.216 130.6C214.231 130.592 214.247 130.588 214.264 130.588C214.281 130.588 214.297 130.592 214.312 130.6L220.841 134.322C221.84 134.89 222.653 135.726 223.188 136.734C223.722 137.741 223.955 138.878 223.859 140.011C223.763 141.144 223.343 142.226 222.646 143.132C221.95 144.038 221.007 144.73 219.927 145.127V137.558C219.921 137.375 219.868 137.197 219.771 137.041C219.675 136.885 219.539 136.757 219.377 136.668ZM222.095 132.638L221.903 132.524L215.45 128.815C215.29 128.722 215.106 128.673 214.92 128.673C214.733 128.673 214.55 128.722 214.389 128.815L206.498 133.306V130.196C206.496 130.181 206.499 130.165 206.506 130.15C206.512 130.136 206.523 130.123 206.536 130.114L213.065 126.399C214.066 125.83 215.21 125.555 216.364 125.604C217.518 125.653 218.633 126.025 219.581 126.677C220.528 127.329 221.267 128.233 221.712 129.284C222.158 130.335 222.29 131.49 222.095 132.612L222.095 132.638ZM205.008 138.151L202.277 136.599C202.263 136.591 202.252 136.58 202.243 136.567C202.234 136.554 202.228 136.539 202.226 136.523V129.099C202.227 127.96 202.557 126.845 203.178 125.884C203.798 124.924 204.683 124.157 205.728 123.674C206.774 123.191 207.937 123.012 209.083 123.157C210.228 123.302 211.308 123.766 212.195 124.494L212.004 124.601L205.545 128.279C205.384 128.372 205.251 128.504 205.158 128.664C205.064 128.823 205.015 129.003 205.014 129.187L205.008 138.151ZM206.491 134.997L210.008 132.997L213.532 134.997V138.996L210.021 140.996L206.498 138.996L206.491 134.997Z" fill="black"/>
</svg>
